<svg version="1.1" xmlns="http://www.w3.org/2000/svg" xmlns:xlink="http://www.w3.org/1999/xlink" width="711" height="929"><defs/><g><g/><g/><g/><g/><g/><g/><g/><g/><g/><g/><g/><g/><g/><g><rect fill="white" stroke="none" x="0" y="0" width="711" height="929"/></g><g><text fill="black" stroke="none" font-family="sans-serif" font-size="16.5pt" font-style="normal" font-weight="normal" text-decoration="normal" x="82.8432377898763" y="24.50280495" text-anchor="start" dominant-baseline="alphabetic">Sample Use-Case 3 - Maintenance Manual (TODO-List)</text></g><g/><g><path fill="none" stroke="black" paint-order="fill stroke markers" d=" M 81.67601649999999 128.80307802049998 L 81.67601649999999 929.2280397205001" stroke-miterlimit="10" stroke-width="1.3612669416666667" stroke-dasharray="12.565541,5.445067766666667"/><path fill="none" stroke="black" paint-order="fill stroke markers" d=" M 315.9524992380208 128.80307802049998 L 315.9524992380208 929.2280397205001" stroke-miterlimit="10" stroke-width="1.3612669416666667" stroke-dasharray="12.565541,5.445067766666667"/><path fill="none" stroke="black" paint-order="fill stroke markers" d=" M 613.8080682797525 128.80307802049998 L 613.8080682797525 929.2280397205001" stroke-miterlimit="10" stroke-width="1.3612669416666667" stroke-dasharray="12.565541,5.445067766666667"/></g><g><g><path fill="white" stroke="black" paint-order="fill stroke markers" d=" M 90.987082381 59.70516806150002 A 9.311065881 9.311065881 0 1 1 90.98707772546743 59.69585699717086 M 81.67601649999999 69.01623394250002 L 81.67601649999999 88.94518196850002 M 69.914670124 76.20372339450002 L 93.43736287599998 76.20372339450002 M 81.67601649999999 88.94518196850002 L 69.914670124 107.56731373050002 M 81.67601649999999 88.94518196850002 L 93.43736287599998 107.56731373050002" stroke-miterlimit="10" stroke-width="2.7769845610000004" stroke-dasharray=""/></g><g><text fill="black" stroke="none" font-family="sans-serif" font-size="11pt" font-style="normal" font-weight="normal" text-decoration="normal" x="45.82420222998046" y="123.90251703050002" text-anchor="start" dominant-baseline="alphabetic">Operator A</text></g><path fill="none" stroke="none"/><g><path fill="white" stroke="black" paint-order="fill stroke markers" d=" M 260.74850275420044 84.86138114350003 L 371.1564957218411 84.86138114350003 L 371.1564957218411 128.8030780205 L 260.74850275420044 128.8030780205 L 260.74850275420044 84.86138114350003 Z" stroke-miterlimit="10" stroke-width="2.613632528" stroke-dasharray=""/></g><g><text fill="black" stroke="none" font-family="sans-serif" font-size="11pt" font-style="normal" font-weight="normal" text-decoration="normal" x="278.47219833470047" y="112.4678747205" text-anchor="start" dominant-baseline="alphabetic">Middleware</text></g><g><path fill="white" stroke="black" paint-order="fill stroke markers" d=" M 623.1191341607525 59.70516806150002 A 9.311065881 9.311065881 0 1 1 623.11912950522 59.69585699717086 M 613.8080682797525 69.01623394250002 L 613.8080682797525 88.94518196850002 M 602.0467219037525 76.20372339450002 L 625.5694146557526 76.20372339450002 M 613.8080682797525 88.94518196850002 L 602.0467219037525 107.56731373050002 M 613.8080682797525 88.94518196850002 L 625.5694146557526 107.56731373050002" stroke-miterlimit="10" stroke-width="2.7769845610000004" stroke-dasharray=""/></g><g><text fill="black" stroke="none" font-family="sans-serif" font-size="11pt" font-style="normal" font-weight="normal" text-decoration="normal" x="577.956254009733" y="123.90251703050002" text-anchor="start" dominant-baseline="alphabetic">Operator B</text></g></g><g><path fill="white" stroke="black" paint-order="fill stroke markers" d=" M 307.7848975880208 136.97067967049998 L 324.1201008880208 136.97067967049998 L 324.1201008880208 872.0548281705001 L 307.7848975880208 872.0548281705001 L 307.7848975880208 136.97067967049998" stroke-miterlimit="10" stroke-width="1.3612669416666667" stroke-dasharray=""/><path fill="white" stroke="black" paint-order="fill stroke markers" d=" M 73.50841485 182.70924891049998 L 89.84361814999998 182.70924891049998 L 89.84361814999998 432.63785940049996 L 73.50841485 432.63785940049996 L 73.50841485 182.70924891049998" stroke-miterlimit="10" stroke-width="1.3612669416666667" stroke-dasharray=""/><path fill="white" stroke="black" paint-order="fill stroke markers" d=" M 73.50841485 476.74290831049996 L 89.84361814999998 476.74290831049996 L 89.84361814999998 538.8166808505 L 73.50841485 538.8166808505 L 73.50841485 476.74290831049996" stroke-miterlimit="10" stroke-width="1.3612669416666667" stroke-dasharray=""/><path fill="white" stroke="black" paint-order="fill stroke markers" d=" M 605.6404666297525 584.5552500905 L 621.9756699297526 584.5552500905 L 621.9756699297526 806.7140149705 L 605.6404666297525 806.7140149705 L 605.6404666297525 584.5552500905" stroke-miterlimit="10" stroke-width="1.3612669416666667" stroke-dasharray=""/><g><g><rect fill="white" stroke="none" x="109.17360872166661" y="161.4734846205" width="179.2812982946875" height="21.23576429"/></g><text fill="black" stroke="none" font-family="sans-serif" font-size="11pt" font-style="normal" font-weight="normal" text-decoration="normal" x="111.62388921666661" y="176.17516759049997" text-anchor="start" dominant-baseline="alphabetic">Start maintenance process</text></g><g><path fill="none" stroke="black" paint-order="fill stroke markers" d=" M 89.84361814999998 182.70924891049998 L 305.06236370468747 182.70924891049998" stroke-miterlimit="10" stroke-width="1.3612669416666667" stroke-dasharray=""/><g transform="translate(307.7848975880208,182.70924891049998) translate(-307.7848975880208,-182.70924891049998)"><path fill="black" stroke="none" paint-order="stroke fill markers" d=" M 294.1722281713541 175.90291420216664 L 307.7848975880208 182.70924891049998 L 294.1722281713541 189.51558361883332 Z"/></g></g><g><g><rect fill="white" stroke="none" x="128.31460756199866" y="207.2120538605" width="140.99930061402344" height="21.23576429"/></g><text fill="black" stroke="none" font-family="sans-serif" font-size="11pt" font-style="normal" font-weight="normal" text-decoration="normal" x="130.76488805699864" y="221.91373683049997" text-anchor="start" dominant-baseline="alphabetic">Maintenance manual</text></g><g><path fill="none" stroke="black" paint-order="fill stroke markers" d=" M 307.7848975880208 228.44781815049998 L 92.56615203333331 228.44781815049998" stroke-miterlimit="10" stroke-width="1.3612669416666667" stroke-dasharray="6.53408132"/><g transform="translate(89.84361814999998,228.44781815049998) translate(-89.84361814999998,-228.44781815049998)"><path fill="black" stroke="none" paint-order="stroke fill markers" d=" M 103.45628756666665 221.64148344216665 L 89.84361814999998 228.44781815049998 L 103.45628756666665 235.25415285883332 Z"/></g></g><g><g><rect fill="white" stroke="none" x="131.1564120663932" y="297.05567201049996" width="135.31569160523438" height="21.23576429"/></g><text fill="black" stroke="none" font-family="sans-serif" font-size="11pt" font-style="normal" font-weight="normal" text-decoration="normal" x="133.60669256139317" y="311.75735498049994" text-anchor="start" dominant-baseline="alphabetic">Step executed/done</text></g><g><path fill="none" stroke="black" paint-order="fill stroke markers" d=" M 89.84361814999998 318.2914363005 L 305.06236370468747 318.2914363005" stroke-miterlimit="10" stroke-width="1.3612669416666667" stroke-dasharray=""/><g transform="translate(307.7848975880208,318.2914363005) translate(-307.7848975880208,-318.2914363005)"><path fill="black" stroke="none" paint-order="stroke fill markers" d=" M 294.1722281713541 311.48510159216664 L 307.7848975880208 318.2914363005 L 294.1722281713541 325.0977710088333 Z"/></g></g><g><g><rect fill="white" stroke="none" x="127.09056276219395" y="411.40209511049994" width="143.44739021363281" height="21.23576429"/></g><text fill="black" stroke="none" font-family="sans-serif" font-size="11pt" font-style="normal" font-weight="normal" text-decoration="normal" x="129.54084325719396" y="426.1037780804999" text-anchor="start" dominant-baseline="alphabetic">Maintenance finished</text></g><g><path fill="none" stroke="black" paint-order="fill stroke markers" d=" M 89.84361814999998 432.63785940049996 L 305.06236370468747 432.63785940049996" stroke-miterlimit="10" stroke-width="1.3612669416666667" stroke-dasharray="6.53408132"/><g transform="translate(307.7848975880208,432.63785940049996) translate(-307.7848975880208,-432.63785940049996)"><path fill="black" stroke="none" paint-order="stroke fill markers" d=" M 294.1722281713541 425.8315246921666 L 307.7848975880208 432.63785940049996 L 294.1722281713541 439.4441941088333 Z"/></g></g><g><g><rect fill="white" stroke="none" x="109.17360872166664" y="501.2457132605" width="79.07376350464844" height="21.23576429"/></g><text fill="black" stroke="none" font-family="sans-serif" font-size="11pt" font-style="normal" font-weight="normal" text-decoration="normal" x="111.62388921666664" y="515.9473962305" text-anchor="start" dominant-baseline="alphabetic">Shift ended</text></g><g><path fill="none" stroke="black" paint-order="fill stroke markers" d=" M 89.84361814999998 522.4814775505 L 155.18443134999998 522.4814775505 L 155.18443134999998 538.8166808505 L 92.56615203333331 538.8166808505" stroke-miterlimit="10" stroke-width="1.3612669416666667" stroke-dasharray=""/><g transform="translate(89.84361814999998,538.8166808505) translate(-89.84361814999998,-538.8166808505)"><path fill="black" stroke="none" paint-order="stroke fill markers" d=" M 103.45628756666665 532.0103461421667 L 89.84361814999998 538.8166808505 L 103.45628756666665 545.6230155588333 Z"/></g></g><g><g><rect fill="white" stroke="none" x="343.4500914596874" y="563.3194858004999" width="242.86038459839844" height="21.23576429"/></g><text fill="black" stroke="none" font-family="sans-serif" font-size="11pt" font-style="normal" font-weight="normal" text-decoration="normal" x="345.90037195468744" y="578.0211687704999" text-anchor="start" dominant-baseline="alphabetic">Get unfinished maintenance process</text></g><g><path fill="none" stroke="black" paint-order="fill stroke markers" d=" M 605.6404666297525 584.5552500905 L 326.8426347713541 584.5552500905" stroke-miterlimit="10" stroke-width="1.3612669416666667" stroke-dasharray=""/><g transform="translate(324.1201008880208,584.5552500905) translate(-324.1201008880208,-584.5552500905)"><path fill="black" stroke="none" paint-order="stroke fill markers" d=" M 337.73277030468745 577.7489153821666 L 324.1201008880208 584.5552500905 L 337.73277030468745 591.3615847988333 Z"/></g></g><g><g><rect fill="white" stroke="none" x="375.2539473556835" y="609.0580550405" width="171.14245857300781" height="21.23576429"/></g><g><rect fill="white" stroke="none" x="375.2539473556835" y="625.3932583405" width="179.25267280640625" height="21.23576429"/></g><text fill="black" stroke="none" font-family="sans-serif" font-size="11pt" font-style="normal" font-weight="normal" text-decoration="normal" x="377.70422785068354" y="623.7597380105" text-anchor="start" dominant-baseline="alphabetic">Maintenance manual with</text><text fill="black" stroke="none" font-family="sans-serif" font-size="11pt" font-style="normal" font-weight="normal" text-decoration="normal" x="377.70422785068354" y="640.0949413105" text-anchor="start" dominant-baseline="alphabetic">progress from [Operator A]</text></g><g><path fill="none" stroke="black" paint-order="fill stroke markers" d=" M 324.1201008880208 646.6290226305 L 602.9179327464192 646.6290226305" stroke-miterlimit="10" stroke-width="1.3612669416666667" stroke-dasharray="6.53408132"/><g transform="translate(605.6404666297525,646.6290226305) translate(-605.6404666297525,-646.6290226305)"><path fill="black" stroke="none" paint-order="stroke fill markers" d=" M 592.0277972130858 639.8226879221667 L 605.6404666297525 646.6290226305 L 592.0277972130858 653.4353573388333 Z"/></g></g><g><g><rect fill="white" stroke="none" x="397.22243795626946" y="715.2368764905" width="135.31569160523438" height="21.23576429"/></g><text fill="black" stroke="none" font-family="sans-serif" font-size="11pt" font-style="normal" font-weight="normal" text-decoration="normal" x="399.6727184512695" y="729.9385594605" text-anchor="start" dominant-baseline="alphabetic">Step executed/done</text></g><g><path fill="none" stroke="black" paint-order="fill stroke markers" d=" M 605.6404666297525 736.4726407805 L 326.8426347713541 736.4726407805" stroke-miterlimit="10" stroke-width="1.3612669416666667" stroke-dasharray=""/><g transform="translate(324.1201008880208,736.4726407805) translate(-324.1201008880208,-736.4726407805)"><path fill="black" stroke="none" paint-order="stroke fill markers" d=" M 337.73277030468745 729.6663060721667 L 324.1201008880208 736.4726407805 L 337.73277030468745 743.2789754888333 Z"/></g></g><g><g><rect fill="white" stroke="none" x="393.15658865207024" y="785.4782506805" width="143.44739021363281" height="21.23576429"/></g><text fill="black" stroke="none" font-family="sans-serif" font-size="11pt" font-style="normal" font-weight="normal" text-decoration="normal" x="395.60686914707026" y="800.1799336505" text-anchor="start" dominant-baseline="alphabetic">Maintenance finished</text></g><g><path fill="none" stroke="black" paint-order="fill stroke markers" d=" M 605.6404666297525 806.7140149705 L 326.8426347713541 806.7140149705" stroke-miterlimit="10" stroke-width="1.3612669416666667" stroke-dasharray="6.53408132"/><g transform="translate(324.1201008880208,806.7140149705) translate(-324.1201008880208,-806.7140149705)"><path fill="black" stroke="none" paint-order="stroke fill markers" d=" M 337.73277030468745 799.9076802621667 L 324.1201008880208 806.7140149705 L 337.73277030468745 813.5203496788333 Z"/></g></g><g><g/><path fill="none" stroke="black" paint-order="fill stroke markers" d=" M 24.50280494999999 252.95062310049997 L 364.9581091380208 252.95062310049997 L 364.9581091380208 342.79424125049997 L 24.50280494999999 342.79424125049997 L 24.50280494999999 252.95062310049997 Z" stroke-miterlimit="10" stroke-width="2.3336004714285714" stroke-dasharray=""/><path fill="white" stroke="black" paint-order="fill stroke markers" d=" M 24.50280494999999 252.95062310049997 L 24.50280494999999 272.5528670605 L 81.92760608124999 272.5528670605 L 91.72872806125 262.7517450805 L 91.72872806125 252.95062310049997 L 24.50280494999999 252.95062310049997" stroke-miterlimit="10" stroke-width="2.3336004714285714" stroke-dasharray=""/><text fill="black" stroke="none" font-family="sans-serif" font-size="8.8pt" font-style="normal" font-weight="bold" text-decoration="normal" x="40.83800824999999" y="266.0187857405" text-anchor="start" dominant-baseline="alphabetic">loop</text><text fill="black" stroke="none" font-family="sans-serif" font-size="8.8pt" font-style="normal" font-weight="bold" text-decoration="normal" x="108.06393136125" y="266.0187857405" text-anchor="start" dominant-baseline="alphabetic">[Sub-tasks / Steps]</text></g><g><g/><path fill="none" stroke="black" paint-order="fill stroke markers" d=" M 24.50280494999999 367.29704620049995 L 687.3164831297526 367.29704620049995 L 687.3164831297526 831.2168199205 L 24.50280494999999 831.2168199205 L 24.50280494999999 367.29704620049995 Z" stroke-miterlimit="10" stroke-width="2.3336004714285714" stroke-dasharray=""/><path fill="white" stroke="black" paint-order="fill stroke markers" d=" M 24.50280494999999 367.29704620049995 L 24.50280494999999 386.89929016049996 L 70.8620085470703 386.89929016049996 L 80.66313052707031 377.09816818049995 L 80.66313052707031 367.29704620049995 L 24.50280494999999 367.29704620049995" stroke-miterlimit="10" stroke-width="2.3336004714285714" stroke-dasharray=""/><text fill="black" stroke="none" font-family="sans-serif" font-size="8.8pt" font-style="normal" font-weight="bold" text-decoration="normal" x="40.83800824999999" y="380.3652088405" text-anchor="start" dominant-baseline="alphabetic">alt</text><text fill="black" stroke="none" font-family="sans-serif" font-size="8.8pt" font-style="normal" font-weight="bold" text-decoration="normal" x="96.99833382707031" y="380.3652088405" text-anchor="start" dominant-baseline="alphabetic">[Operator A finishes the Maintenance process itself]</text><g><path fill="none" stroke="black" paint-order="fill stroke markers" d=" M 24.50280494999999 457.14066435049995 L 687.3164831297526 457.14066435049995" stroke-miterlimit="10" stroke-width="2.3336004714285714" stroke-dasharray="4.083800825"/></g><g/><text fill="black" stroke="none" font-family="sans-serif" font-size="8.8pt" font-style="normal" font-weight="bold" text-decoration="normal" x="96.99833382707031" y="470.2088269905" text-anchor="start" dominant-baseline="alphabetic">[shift is ending before maintenance is finished]</text></g><g/><g><g/><path fill="none" stroke="black" paint-order="fill stroke markers" d=" M 250.61168603802076 671.1318275805 L 670.9812798297526 671.1318275805 L 670.9812798297526 760.9754457305 L 250.61168603802076 760.9754457305 L 250.61168603802076 671.1318275805 Z" stroke-miterlimit="10" stroke-width="2.3336004714285714" stroke-dasharray=""/><path fill="white" stroke="black" paint-order="fill stroke markers" d=" M 250.61168603802076 671.1318275805 L 250.61168603802076 690.7340715405 L 308.03648716927074 690.7340715405 L 317.83760914927075 680.9329495605 L 317.83760914927075 671.1318275805 L 250.61168603802076 671.1318275805" stroke-miterlimit="10" stroke-width="2.3336004714285714" stroke-dasharray=""/><text fill="black" stroke="none" font-family="sans-serif" font-size="8.8pt" font-style="normal" font-weight="bold" text-decoration="normal" x="266.94688933802075" y="684.1999902205" text-anchor="start" dominant-baseline="alphabetic">loop</text><text fill="black" stroke="none" font-family="sans-serif" font-size="8.8pt" font-style="normal" font-weight="bold" text-decoration="normal" x="334.17281244927074" y="684.1999902205" text-anchor="start" dominant-baseline="alphabetic">[Sub-tasks / Steps]</text></g></g></g></svg>