<?xml version="1.0" encoding="utf-8"?>
<!-- Generator: Adobe Illustrator 22.1.0, SVG Export Plug-In . SVG Version: 6.00 Build 0)  -->
<svg version="1.1" id="Ebene_1" xmlns="http://www.w3.org/2000/svg" xmlns:xlink="http://www.w3.org/1999/xlink" x="0px" y="0px"
	 viewBox="0 0 213.1 101.5" style="enable-background:new 0 0 213.1 101.5;" xml:space="preserve">
<style type="text/css">
	.st0{opacity:0.75;}
	.st1{opacity:0.75;fill:#FFFFFF;}
	.st2{fill:#008BC5;}
	.st3{fill:#E3051B;}
	.st4{fill:#E3051B;}
</style>
<title>dietz_logo</title>
<g class="st0">
	<g id="Ebene_1_1_">
		<rect x="6" y="6" class="st1" width="201" height="89.3"/>
	</g>
</g>
<path class="st2" d="M64.3,58.5L64.3,58.5c0,0.1,0,0.2,0,0.3s0,0.2,0,0.2c0,0.2,0.1,0.4,0.1,0.6c0.1,0.2,0.1,0.3,0.2,0.5
	s0.2,0.3,0.3,0.5c0.1,0.1,0.2,0.2,0.3,0.4l0.1,0.1c0,0,0,0,0.1,0.1l0.1,0.1l0.1,0.1c0.1,0.1,0.1,0.1,0.2,0.2
	c0.2,0.2,0.4,0.3,0.6,0.4c0.2,0.1,0.4,0.2,0.6,0.3s0.4,0.1,0.7,0.2c0.3,0.1,0.5,0.1,0.8,0.1h0.1H77c0.4,0,0.8,0,1.1,0
	c0.8,0,1.7-0.1,2.5-0.2c0.9-0.1,1.8-0.3,2.6-0.5c1.9-0.5,3.8-1.3,5.4-2.5c1.4-0.9,2.6-2.1,3.6-3.5c1.1-1.5,1.9-3.2,2.5-5
	c0.5-1.4,0.8-2.8,0.9-4.3c0.1-0.6,0.1-1.2,0.1-1.8c0-0.3,0-0.6,0-0.9c0-0.3,0-0.5,0-0.8c0-0.1,0-0.2,0-0.3c-0.1-1.8-0.4-3.7-1-5.4
	c-0.5-1.6-1.2-3.1-2.2-4.5c-0.9-1.4-2.1-2.7-3.4-3.8c-1.4-1.2-3-2.1-4.7-2.7c-2-0.8-4.2-1.2-6.4-1.3c-0.4,0-0.8,0-1.1,0h-7.6h-0.2
	H69h-0.1c-0.4,0-0.9,0-1.3,0.1c-0.4,0-0.7,0.1-1.1,0.3c-0.3,0.1-0.6,0.3-0.9,0.5s-0.5,0.4-0.7,0.6c-0.2,0.3-0.4,0.6-0.5,0.9
	C64.1,28.2,64,29,64,29.7c0,0.3,0,0.5,0.1,0.7s0.1,0.4,0.3,0.6c0.3,0.4,0.7,0.8,1.2,1c0.5,0.3,1,0.4,1.5,0.5s0.9,0.1,1.4,0.1
	c0.2,0,0.5,0,0.7,0l0,0h7.1c0.2,0,0.4,0,0.6,0c0.3,0,0.6,0,0.9,0.1c0.5,0.1,0.9,0.1,1.4,0.2c0.9,0.2,1.7,0.4,2.6,0.8
	c0.8,0.3,1.5,0.8,2.2,1.3c0.6,0.5,1.1,1.1,1.5,1.7c0.5,0.8,0.9,1.7,1.2,2.6c0.5,1.6,0.7,3.2,0.7,4.9c0,0.6,0,1.3-0.1,1.9
	c-0.1,0.6-0.1,1.2-0.3,1.7c-0.3,1.2-0.7,2.4-1.3,3.5c-0.5,0.9-1.2,1.7-2,2.3c-0.7,0.6-1.6,1-2.4,1.3c-0.9,0.3-1.8,0.5-2.7,0.5
	c-0.1,0-0.3,0-0.4,0h-5.9v-18c0-0.1,0-0.3,0-0.4v-0.1c-0.1-0.5-0.3-1-0.6-1.4c-0.3-0.4-0.6-0.7-1-1c-0.5-0.3-1-0.5-1.5-0.6
	c-0.6-0.1-1.3-0.1-1.9,0c-0.5,0.1-1.1,0.3-1.5,0.6c-0.4,0.2-0.7,0.6-1,1s-0.5,1-0.5,1.5c0,0.1,0,0.3,0,0.4L64.3,58.5L64.3,58.5z"/>
<path class="st2" d="M98.8,58.9c0,0.1,0,0.2,0,0.2c0,0.5,0.1,1,0.3,1.5c0.1,0.4,0.3,0.7,0.5,1s0.5,0.5,0.8,0.7s0.6,0.4,1,0.5
	c0.2,0.1,0.4,0.1,0.6,0.2c0.3,0.1,0.5,0.1,0.8,0.1c0.5,0,1-0.1,1.5-0.3c0.4-0.1,0.7-0.3,1-0.6c0.3-0.2,0.5-0.5,0.7-0.8
	c0.2-0.4,0.4-0.8,0.5-1.2c0-0.2,0.1-0.4,0.1-0.6c0-0.2,0-0.3,0-0.5v-0.2V29v-0.2c0-0.5-0.1-1-0.3-1.5c-0.1-0.4-0.3-0.7-0.5-1
	s-0.5-0.5-0.8-0.7s-0.6-0.4-1-0.5c-0.2-0.1-0.4-0.1-0.6-0.1s-0.4,0-0.6-0.1h-0.2h-0.2c-0.1,0-0.3,0-0.4,0c-0.3,0-0.6,0.1-0.9,0.2
	c-0.4,0.1-0.7,0.3-1,0.6c-0.3,0.3-0.6,0.6-0.8,0.9c-0.2,0.4-0.4,0.8-0.5,1.2c0,0.2-0.1,0.4-0.1,0.6c0,0.1,0,0.3,0,0.4s0,0.2,0,0.2
	L98.8,58.9L98.8,58.9z"/>
<path class="st2" d="M110.6,58.7v0.2c0,0.5,0.1,0.9,0.3,1.3c0.1,0.4,0.4,0.7,0.6,1c0.3,0.3,0.6,0.6,0.9,0.8c0.4,0.2,0.7,0.4,1.1,0.5
	c0.2,0,0.3,0.1,0.5,0.1c0.1,0,0.2,0,0.3,0c0.1,0,0.1,0,0.2,0h13.6c0.1,0,0.1,0,0.2,0c0.4,0,0.8-0.1,1.2-0.2c0.3-0.1,0.6-0.3,0.9-0.5
	c0.3-0.2,0.5-0.4,0.7-0.7s0.3-0.6,0.4-0.9c0.1-0.3,0.2-0.7,0.2-1c0-0.1,0-0.1,0-0.2c0-0.4,0-0.8-0.2-1.2c-0.1-0.4-0.3-0.7-0.5-1
	s-0.5-0.6-0.8-0.8s-0.7-0.4-1.1-0.5c-0.2,0-0.3-0.1-0.5-0.1s-0.3,0-0.5,0c-0.1,0-0.1,0-0.2,0h-9.7v-8h8.6c0.1,0,0.1,0,0.2,0
	c0.5,0,1-0.1,1.4-0.3c0.3-0.1,0.7-0.3,0.9-0.5c0.3-0.2,0.5-0.5,0.7-0.7c0.2-0.3,0.3-0.6,0.4-0.9c0.1-0.3,0.2-0.6,0.2-0.9
	c0-0.1,0-0.1,0-0.2c0-0.4-0.1-0.8-0.2-1.2c-0.1-0.4-0.3-0.7-0.5-1s-0.5-0.6-0.8-0.8s-0.7-0.4-1.1-0.5c-0.2,0-0.4-0.1-0.5-0.1
	c-0.2,0-0.3,0-0.5,0h-0.2h-8.6v-7.7h9.3c0.1,0,0.1,0,0.2,0c0.5,0,0.9-0.1,1.4-0.3c0.3-0.1,0.6-0.3,0.9-0.6c0.3-0.2,0.5-0.5,0.7-0.7
	c0.2-0.3,0.3-0.6,0.4-0.9c0.1-0.2,0.1-0.3,0.1-0.5s0.1-0.4,0.1-0.6c0-0.4-0.1-0.9-0.2-1.3c-0.1-0.3-0.3-0.7-0.5-1s-0.5-0.6-0.8-0.8
	c-0.3-0.2-0.7-0.4-1.1-0.5c-0.2,0-0.4-0.1-0.5-0.1s-0.2,0-0.4,0c-0.1,0-0.1,0-0.2,0h-13.1c-0.1,0-0.2,0-0.2,0
	c-0.5,0-0.9,0.1-1.4,0.3c-0.4,0.1-0.7,0.3-1,0.6c-0.3,0.2-0.5,0.5-0.7,0.9c-0.2,0.3-0.4,0.7-0.5,1.1c-0.1,0.5-0.2,1-0.2,1.4v0.1V30
	v28.7H110.6z"/>
<path class="st2" d="M142.1,58.9c0,0.1,0,0.2,0,0.2c0,0.5,0.1,1,0.3,1.5c0.1,0.4,0.3,0.7,0.5,1s0.5,0.5,0.8,0.7s0.6,0.4,1,0.5
	c0.2,0.1,0.4,0.1,0.6,0.2c0.3,0.1,0.5,0.1,0.8,0.1c0.5,0,1-0.1,1.5-0.3c0.4-0.1,0.7-0.3,1-0.6c0.3-0.2,0.6-0.6,0.8-0.9
	c0.2-0.4,0.4-0.8,0.5-1.2c0-0.2,0.1-0.4,0.1-0.6c0-0.1,0-0.3,0-0.4c0-0.1,0-0.2,0-0.2V32.5h5.7c0.1,0,0.1,0,0.2,0
	c0.4,0,0.8-0.1,1.2-0.3c0.3-0.1,0.6-0.3,0.9-0.5c0.3-0.2,0.5-0.4,0.6-0.7c0.2-0.3,0.3-0.6,0.4-0.9c0.1-0.3,0.1-0.6,0.2-0.9v-0.1
	v-0.2c0-0.4-0.1-0.9-0.2-1.3c-0.1-0.4-0.3-0.7-0.5-1s-0.5-0.6-0.8-0.8c-0.3-0.2-0.7-0.4-1.1-0.5c-0.2,0-0.3-0.1-0.5-0.1
	c-0.1,0-0.2,0-0.3,0s-0.1,0-0.2,0h-19.4c-0.1,0-0.1,0-0.2,0c-0.4,0-0.9,0.1-1.2,0.3c-0.3,0.1-0.6,0.3-0.9,0.5
	c-0.3,0.2-0.5,0.5-0.7,0.8s-0.3,0.7-0.4,1c0,0.1-0.1,0.3-0.1,0.4c0,0.2,0,0.4-0.1,0.6c0,0.4,0.1,0.9,0.2,1.3c0.1,0.3,0.3,0.7,0.5,1
	s0.5,0.6,0.8,0.8c0.3,0.2,0.7,0.4,1.1,0.5c0.2,0.1,0.3,0.1,0.5,0.1c0.1,0,0.2,0,0.4,0c0.1,0,0.1,0,0.2,0h5.7L142.1,58.9L142.1,58.9z
	"/>
<path class="st2" d="M169.7,55.7l16.8-23.4c0,0,0-0.1,0.1-0.1c0.1-0.2,0.3-0.4,0.4-0.6c0.1-0.2,0.2-0.4,0.3-0.7
	c0.1-0.2,0.2-0.5,0.2-0.7c0.1-0.2,0.1-0.5,0.1-0.7c0-0.1,0-0.2,0-0.3c0-0.1,0-0.2,0-0.3c0-0.4-0.1-0.9-0.2-1.3
	c-0.1-0.4-0.3-0.7-0.6-1s-0.6-0.6-0.9-0.8c-0.4-0.2-0.9-0.4-1.3-0.5c-0.2,0-0.4-0.1-0.6-0.1c-0.1,0-0.3,0-0.4,0c-0.1,0-0.2,0-0.3,0
	H164c-0.1,0-0.1,0-0.2,0c-0.4,0-0.8,0.1-1.2,0.3c-0.4,0.1-0.7,0.3-1,0.6c-0.3,0.2-0.6,0.5-0.8,0.8s-0.4,0.7-0.5,1
	c0,0.1-0.1,0.3-0.1,0.4c0,0.2,0,0.3,0,0.5c0,0.4,0.1,0.9,0.2,1.3c0.1,0.3,0.3,0.6,0.5,0.8c0.2,0.3,0.4,0.5,0.7,0.6
	c0.3,0.2,0.6,0.4,1,0.5c0.2,0.1,0.4,0.1,0.6,0.1c0.2,0,0.4,0,0.5,0.1c0.1,0,0.1,0,0.2,0h13.9l-17,23.7c0,0,0,0.1-0.1,0.1
	c-0.1,0.2-0.3,0.4-0.4,0.6c-0.1,0.2-0.2,0.4-0.3,0.6c-0.1,0.2-0.1,0.4-0.2,0.6c-0.1,0.2-0.1,0.4-0.1,0.6c0,0.1,0,0.2,0,0.3
	s0,0.2,0,0.3c0,0.5,0.1,1,0.3,1.5c0.1,0.4,0.4,0.7,0.6,1c0.3,0.3,0.6,0.6,1,0.7c0.4,0.2,0.8,0.4,1.3,0.4c0.2,0,0.4,0.1,0.6,0.1
	c0.1,0,0.3,0,0.4,0c0.1,0,0.2,0,0.2,0H185c0.1,0,0.1,0,0.2,0c0.4,0,0.8-0.1,1.2-0.2c0.4-0.1,0.7-0.3,1-0.5s0.6-0.5,0.8-0.8
	s0.4-0.6,0.5-1c0-0.1,0.1-0.3,0.1-0.4c0-0.2,0-0.3,0-0.5c0-0.5-0.1-0.9-0.2-1.3c-0.1-0.3-0.3-0.6-0.5-0.9c-0.2-0.3-0.4-0.5-0.7-0.6
	c-0.3-0.2-0.6-0.3-0.9-0.4c-0.4-0.1-0.8-0.2-1.2-0.2c0,0,0,0-0.1,0H185h-15.3V55.7z"/>
<path class="st3" d="M40,25.6c-0.2,0-0.3,0-0.5,0c-0.4,0-0.9,0-1.4,0.1c-0.5,0-1,0.1-1.5,0.2c-1,0.2-1.9,0.4-2.8,0.7
	c-0.9,0.3-1.8,0.7-2.6,1.2c-0.8,0.4-1.7,0.9-2.4,1.5c-0.7,0.5-1.2,1.2-1.9,1.7c-0.1,0-0.1,0.1-0.2,0.1l-0.1,0.1
	c-0.1,0.1-0.3,0.1-0.4,0.1s-0.3,0-0.4,0s-0.2-0.1-0.3-0.2c-0.1-0.1-0.2-0.2-0.3-0.3c-0.1-0.1-0.1-0.2-0.1-0.4c0-0.1,0-0.3,0-0.5
	s0.1-0.4,0.2-0.6l0.1-0.1l0,0c0.1-0.1,0.2-0.2,0.3-0.3c0.2-0.2,0.4-0.4,0.6-0.5c0.3-0.3,0.6-0.5,1-0.8c0.8-0.7,1.7-1.2,2.7-1.7
	c0.9-0.5,1.9-1,2.9-1.3c1-0.4,2.1-0.7,3.1-0.9c0.8-0.2,1.6-0.3,2.5-0.3c0.3,0,0.7,0,1,0c0.2,0,0.3,0,0.5,0c0.3,0,0.7,0,1,0
	c0.6,0,1.1,0.1,1.7,0.2c0.9,0.1,1.7,0.3,2.6,0.5c2.1,0.5,4.1,1.4,5.9,2.6c1.8,1.1,3.4,2.5,4.8,4.2c1.4,1.6,2.5,3.5,3.3,5.4
	c1,2.4,1.6,5.1,1.5,7.7c0,0.9-0.1,1.8-0.2,2.7c-0.1,0.9-0.3,1.7-0.5,2.6c-0.5,2.1-1.4,4.1-2.6,5.8c-1.1,1.8-2.6,3.4-4.2,4.7
	c-1.6,1.4-3.5,2.5-5.5,3.3c-2.5,1-5.1,1.6-7.8,1.5c-0.3,0-0.6,0-0.9,0c-0.3,0-0.6,0-0.9-0.1c-0.7-0.1-1.5-0.2-2.2-0.3
	c-0.7-0.1-1.5-0.3-2.2-0.5s-1.4-0.5-2.1-0.8c-0.7-0.3-1.4-0.6-2-1c-0.1-0.1-0.2-0.1-0.3-0.2l1.4-1.9c0.1,0.1,0.2,0.1,0.2,0.1
	c0.1,0.1,0.3,0.2,0.4,0.2c0.2,0.1,0.5,0.2,0.7,0.3c0.6,0.3,1.2,0.5,1.8,0.7s1.2,0.4,1.8,0.5c0.6,0.2,1.3,0.3,1.9,0.4
	c0.5,0.1,1,0.1,1.5,0.1c0.2,0,0.4,0,0.6,0c0.1,0,0.2,0,0.3,0c0.3,0,0.6,0,0.9,0c0.5,0,1-0.1,1.5-0.1c0.8-0.1,1.5-0.3,2.3-0.4
	c1.8-0.5,3.6-1.2,5.2-2.3c1.6-1,3-2.3,4.2-3.7s2.2-3.1,2.9-4.8c0.9-2.2,1.4-4.5,1.3-6.8c0-0.8,0-1.6-0.2-2.4
	c-0.1-0.8-0.3-1.5-0.5-2.3c-0.5-1.8-1.3-3.6-2.3-5.2c-1-1.6-2.3-3-3.7-4.2c-1.5-1.2-3.1-2.2-4.9-2.9c-1.9-0.8-3.9-1.3-6-1.3
	C40.7,25.6,40.3,25.6,40,25.6 M22.5,36.1L22.5,36.1c0,0-0.1,0-0.1,0.1c-0.3,0.1-0.6,0.3-0.8,0.5c-0.2,0.2-0.4,0.4-0.5,0.6
	c-0.1,0.2-0.2,0.5-0.3,0.7c-0.1,0.3-0.1,0.5-0.1,0.8s0.1,0.7,0.2,1c0,0.1,0,0.1,0.1,0.2c0.1,0.4,0.3,0.8,0.5,1.1s0.4,0.5,0.6,0.7
	s0.4,0.3,0.7,0.4c0.2,0.1,0.5,0.1,0.8,0.1c0.2,0,0.3,0,0.5,0c0.1,0,0.2-0.1,0.3-0.1c0.1,0,0.1,0,0.1,0L41,36.3c0,0,0.1,0,0.2-0.1
	c0.3-0.1,0.6-0.3,0.8-0.5s0.4-0.4,0.5-0.6c0.1-0.2,0.2-0.5,0.3-0.7c0.1-0.3,0.1-0.5,0.1-0.8s-0.1-0.7-0.2-1c0-0.1,0-0.1-0.1-0.2
	c-0.1-0.4-0.3-0.8-0.5-1.1c-0.2-0.2-0.3-0.4-0.6-0.6c-0.2-0.2-0.4-0.3-0.7-0.4c-0.2-0.1-0.5-0.1-0.8-0.2c-0.3,0-0.6,0-0.8,0.1l0,0
	c-0.1,0-0.1,0-0.2,0.1L22.5,36.1z M22.4,52.5L22.4,52.5c-0.1,0-0.1,0-0.1,0.1c-0.3,0.1-0.6,0.3-0.8,0.5c-0.2,0.2-0.4,0.4-0.5,0.6
	c-0.1,0.2-0.2,0.5-0.3,0.7c-0.1,0.3-0.1,0.5-0.1,0.8s0.1,0.7,0.2,1c0,0.1,0,0.1,0.1,0.2c0.1,0.4,0.3,0.8,0.5,1.1
	c0.2,0.2,0.3,0.4,0.6,0.6c0.2,0.2,0.4,0.3,0.7,0.4c0.2,0.1,0.5,0.1,0.8,0.2c0.3,0,0.6,0,0.8-0.1l0,0c0.1,0,0.1,0,0.2,0L40.9,53
	c0.1,0,0.1,0,0.1-0.1c0.3-0.1,0.6-0.3,0.8-0.5s0.4-0.4,0.5-0.6c0.1-0.2,0.2-0.5,0.3-0.7c0.1-0.3,0.1-0.5,0.1-0.8s-0.1-0.7-0.2-1
	c0-0.1,0-0.1-0.1-0.2c-0.1-0.4-0.3-0.8-0.5-1.1c-0.2-0.2-0.3-0.4-0.5-0.6c-0.2-0.2-0.4-0.3-0.7-0.4c-0.2-0.1-0.5-0.1-0.8-0.2
	c-0.3,0-0.6,0-0.9,0.1h-0.1c0,0-0.1,0-0.2,0L22.4,52.5z M22.5,44.3c0,0-0.1,0-0.2,0.1c-0.3,0.1-0.6,0.3-0.8,0.5
	c-0.2,0.2-0.4,0.4-0.5,0.6c-0.1,0.2-0.2,0.5-0.3,0.7c-0.1,0.3-0.1,0.6,0,0.9c0,0.2,0,0.3,0.1,0.5c0,0.2,0.1,0.4,0.2,0.6
	c0.1,0.4,0.3,0.8,0.5,1.1s0.4,0.5,0.6,0.7s0.4,0.3,0.7,0.4c0.2,0.1,0.5,0.1,0.8,0.1c0.2,0,0.3,0,0.5,0c0.1,0,0.2,0,0.3-0.1
	c0.1,0,0.1,0,0.2-0.1L41,44.6c0,0,0.1,0,0.1-0.1c0.3-0.1,0.6-0.3,0.8-0.5s0.4-0.4,0.5-0.6c0.1-0.2,0.2-0.5,0.3-0.7
	c0.1-0.3,0.1-0.5,0.1-0.8s-0.1-0.7-0.2-1c0-0.1,0-0.1-0.1-0.2c-0.1-0.4-0.3-0.8-0.5-1.1c-0.2-0.2-0.3-0.4-0.5-0.6
	c-0.2-0.2-0.4-0.3-0.7-0.4c-0.2-0.1-0.5-0.1-0.8-0.2c-0.3,0-0.6,0-0.9,0.1c0,0,0,0-0.1,0c0,0-0.1,0-0.2,0.1L22.5,44.3z"/>
<g class="st0">
	<path class="st4" d="M75.8,81.1h-1.6l-2.6-9.7l0,0l-2.7,9.7h-1.6l-3-11.6h1.6l2.3,9.6l0,0l2.6-9.6h1.7l2.6,9.6l0,0l2.4-9.6H79
		L75.8,81.1z"/>
	<path class="st4" d="M86.4,78.5c-0.4,1.9-1.7,2.9-3.6,2.9c-2.7,0-3.9-1.9-4-4.4c0-2.5,1.7-4.4,3.9-4.4c3,0,3.9,2.8,3.8,4.8h-6.3
		c0,1.5,0.8,2.8,2.6,2.8c1.1,0,1.9-0.6,2.2-1.6h1.4V78.5z M85.1,76.1c-0.1-1.3-1.1-2.4-2.4-2.4c-1.4,0-2.3,1.1-2.4,2.4H85.1z"/>
	<path class="st4" d="M93.1,74h-1.4v-1.2h1.4v-1.3c0-1.4,0.8-2.1,2.3-2.1c0.3,0,0.6,0,0.9,0.1v1.2c-0.2-0.1-0.5-0.1-0.8-0.1
		c-0.7,0-1.1,0.2-1.1,0.9v1.2H96V74h-1.6v7.2H93L93.1,74L93.1,74z"/>
	<path class="st4" d="M100.9,72.5c2.7,0,4.1,1.9,4.1,4.4s-1.4,4.4-4.1,4.4s-4.1-1.9-4.1-4.4C96.8,74.5,98.3,72.5,100.9,72.5z
		 M100.9,80.1c1.4,0,2.6-1.1,2.6-3.2c0-2-1.2-3.2-2.6-3.2s-2.6,1.1-2.6,3.2S99.5,80.1,100.9,80.1z"/>
	<path class="st4" d="M106.6,72.7h1.3v1.8l0,0c0.7-1.3,1.6-2,3.1-2V74c-2.2,0-3,1.3-3,3.4v3.7h-1.4V72.7z"/>
	<path class="st4" d="M112,72.7h1.3V74l0,0c0.6-0.9,1.6-1.4,2.7-1.4c1,0,2,0.4,2.3,1.4c0.6-0.9,1.6-1.4,2.6-1.4
		c1.7,0,2.8,0.7,2.8,2.4v6.2h-1.4v-5.5c0-1-0.3-1.9-1.6-1.9c-1.3,0-2.2,0.8-2.2,2.1v5.2h-1.4v-5.5c0-1.1-0.3-1.9-1.6-1.9
		c-1.6,0-2.2,1.5-2.2,2.1V81H112V72.7z"/>
	<path class="st4" d="M131.3,78.5c0,1.2,1.1,1.6,2.3,1.6c0.9,0,2-0.2,2-1.3c0-1.1-1.4-1.3-2.7-1.6c-1.4-0.3-2.7-0.8-2.7-2.4
		c0-1.7,1.7-2.4,3.1-2.4c1.9,0,3.3,0.6,3.4,2.6h-1.4c-0.1-1.1-1-1.4-1.9-1.4c-0.8,0-1.8,0.2-1.8,1.1c0,1,1.5,1.2,2.7,1.5
		c1.4,0.3,2.7,0.8,2.7,2.4c0,2-1.9,2.6-3.6,2.6c-1.9,0-3.5-0.8-3.6-2.8h1.5V78.5z"/>
	<path class="st4" d="M145.5,81.1h-1.3v-1.3l0,0c-0.6,1-1.5,1.5-2.7,1.5c-2.2,0-2.9-1.3-2.9-3.1v-5.5h1.4v5.7c0,1,0.6,1.7,1.7,1.7
		c1.7,0,2.5-1.1,2.5-2.6v-4.7h1.4L145.5,81.1L145.5,81.1z"/>
	<path class="st4" d="M153.3,75.4c-0.2-1.1-0.9-1.7-2.1-1.7c-2,0-2.6,1.6-2.6,3.3c0,1.5,0.7,3.1,2.5,3.1c1.3,0,2.1-0.8,2.3-2h1.4
		c-0.3,2-1.6,3.3-3.7,3.3c-2.6,0-3.9-1.8-3.9-4.3s1.3-4.5,4-4.5c1.9,0,3.4,0.9,3.6,2.9h-1.5V75.4z"/>
	<path class="st4" d="M162,75.4c-0.2-1.1-0.9-1.7-2.1-1.7c-2,0-2.6,1.6-2.6,3.3c0,1.5,0.7,3.1,2.5,3.1c1.3,0,2.1-0.8,2.3-2h1.4
		c-0.3,2-1.6,3.3-3.7,3.3c-2.6,0-3.9-1.8-3.9-4.3s1.3-4.5,4-4.5c1.9,0,3.4,0.9,3.6,2.9H162V75.4z"/>
	<path class="st4" d="M172.2,78.5c-0.4,1.9-1.7,2.9-3.6,2.9c-2.7,0-3.9-1.9-4-4.4c0-2.5,1.7-4.4,3.9-4.4c3,0,3.9,2.8,3.8,4.8H166
		c0,1.5,0.8,2.8,2.6,2.8c1.1,0,1.9-0.6,2.2-1.6h1.4V78.5z M170.8,76.1c-0.1-1.3-1.1-2.4-2.4-2.4c-1.4,0-2.3,1.1-2.4,2.4H170.8z"/>
	<path class="st4" d="M174.6,78.5c0,1.2,1.1,1.6,2.3,1.6c0.9,0,2-0.2,2-1.3c0-1.1-1.4-1.3-2.7-1.6c-1.4-0.3-2.7-0.8-2.7-2.4
		c0-1.7,1.7-2.4,3.1-2.4c1.9,0,3.3,0.6,3.4,2.6h-1.4c-0.1-1.1-1-1.4-1.9-1.4c-0.8,0-1.8,0.2-1.8,1.1c0,1,1.5,1.2,2.7,1.5
		c1.4,0.3,2.7,0.8,2.7,2.4c0,2-1.9,2.6-3.6,2.6c-1.9,0-3.5-0.8-3.6-2.8h1.5V78.5z"/>
	<path class="st4" d="M182.7,78.5c0,1.2,1.1,1.6,2.3,1.6c0.9,0,2-0.2,2-1.3c0-1.1-1.4-1.3-2.7-1.6c-1.4-0.3-2.7-0.8-2.7-2.4
		c0-1.7,1.7-2.4,3.1-2.4c1.9,0,3.3,0.6,3.4,2.6h-1.4c-0.1-1.1-1-1.4-1.9-1.4c-0.8,0-1.8,0.2-1.8,1.1c0,1,1.5,1.2,2.7,1.5
		c1.4,0.3,2.7,0.8,2.7,2.4c0,2-1.9,2.6-3.6,2.6c-1.9,0-3.5-0.8-3.6-2.8h1.5V78.5z"/>
</g>
</svg>
