<?xml version="1.0" encoding="utf-8"?>
<!-- Generator: Adobe Illustrator 16.0.0, SVG Export Plug-In . SVG Version: 6.00 Build 0)  -->
<!DOCTYPE svg PUBLIC "-//W3C//DTD SVG 1.1//EN" "http://www.w3.org/Graphics/SVG/1.1/DTD/svg11.dtd">
<svg version="1.1" id="Ebene_1" xmlns="http://www.w3.org/2000/svg" xmlns:xlink="http://www.w3.org/1999/xlink" x="0px" y="0px"
	 width="306px" height="213px" viewBox="0 0 306 213" enable-background="new 0 0 306 213" xml:space="preserve">
<g>
	<defs>
		<rect id="SVGID_1_" x="-155" y="-367.001" width="595.28" height="841.89"/>
	</defs>
	<clipPath id="SVGID_2_">
		<use xlink:href="#SVGID_1_"  overflow="visible"/>
	</clipPath>
	<path clip-path="url(#SVGID_2_)" fill="#00927B" d="M22.178,61.089c9.294-4.785,22.908-12.52,39.068-23.83v-3.795
		C47.024,42.768,32.561,50.24,22.178,55.183V61.089z"/>
	<path clip-path="url(#SVGID_2_)" fill="#00927B" d="M22.178,49.753c10.348-4.216,24.812-10.729,39.068-19.209V28.67
		c-13.399,6.647-27.321,10.808-39.068,13.401V49.753z"/>
	<path clip-path="url(#SVGID_2_)" fill="#00927B" d="M61.247,61.106V42.015c-8.895,7.498-17.703,13.99-25.103,19.092H61.247z"/>
	<path clip-path="url(#SVGID_2_)" fill="#00927B" d="M31.148,61.106c7.026-4.17,15.556-9.614,24.049-15.976
		c1.981-1.485,4.005-3.015,6.05-4.596v-2.366C48.675,47.593,35.844,55.45,25.82,61.106H31.148z"/>
	<path clip-path="url(#SVGID_2_)" fill="#00927B" d="M22.178,39.294c11.427-2.01,25.407-5.625,39.068-12.117v-2.129
		C47.48,31.229,33.7,33.85,22.178,34.781V39.294z"/>
	<path clip-path="url(#SVGID_2_)" fill="#00927B" d="M22.178,21.841v10.938c0.854-0.053,1.724-0.114,2.612-0.183
		c9.5-0.731,22.465-2.409,36.456-8.459v-2.296H22.178z"/>
	<path clip-path="url(#SVGID_2_)" fill="#FFFFFF" d="M22.178,32.779v2.003c11.522-0.933,25.302-3.554,39.068-9.733v-0.912
		c-13.991,6.05-26.956,7.729-36.456,8.459C23.902,32.666,23.032,32.726,22.178,32.779"/>
	<path clip-path="url(#SVGID_2_)" fill="#FFFFFF" d="M22.178,42.072c11.747-2.594,25.669-6.754,39.068-13.401v-1.494
		C47.585,33.67,33.605,37.285,22.178,39.295V42.072z"/>
	<path clip-path="url(#SVGID_2_)" fill="#FFFFFF" d="M22.178,55.183c10.383-4.943,24.846-12.415,39.068-21.719v-2.919
		c-14.256,8.479-28.72,14.993-39.068,19.209V55.183z"/>
	<path clip-path="url(#SVGID_2_)" fill="#FFFFFF" d="M31.148,61.106h4.996c7.4-5.102,16.208-11.594,25.103-19.092v-1.48
		c-2.045,1.581-4.069,3.111-6.05,4.596C46.704,51.493,38.174,56.937,31.148,61.106"/>
	<path clip-path="url(#SVGID_2_)" fill="#FFFFFF" d="M22.178,61.106h3.642c10.024-5.656,22.855-13.513,35.426-22.938v-0.909
		c-16.16,11.309-29.774,19.044-39.068,23.83V61.106z"/>
</g>
<g>
	<defs>
		<rect id="SVGID_3_" x="74.403" y="32.507" width="188.725" height="29.032"/>
	</defs>
	<clipPath id="SVGID_4_">
		<use xlink:href="#SVGID_3_"  overflow="visible"/>
	</clipPath>
	<path clip-path="url(#SVGID_4_)" d="M251.765,61.089h5.024v-7.091c0-2.774,0-7.877,4.085-7.877c0.902,0,1.804,0.148,2.254,0.413
		v-5.063c-0.53-0.15-1.053-0.15-1.54-0.15c-2.999,0-5.062,3.04-5.286,4.836h-0.077v-4.385h-4.46V61.089z M246.738,55.913
		c-1.878,1.049-3.975,1.951-6.416,1.951c-3.107,0-5.283-1.763-5.513-4.88h13.351c0-6.751-2.023-11.663-9.188-11.663
		c-5.997,0-8.96,4.612-8.96,10.201c0,6.342,3.71,10.016,10.089,10.016c2.702,0,4.797-0.525,6.638-1.539V55.913z M234.81,49.535
		c0.229-2.588,1.65-4.538,4.464-4.538c2.815,0,3.941,2.101,4.087,4.538H234.81z M218.759,61.089h5.024V45.446h4.388v-3.674h-4.388
		v-2.401c0-1.499,0.527-2.964,2.218-2.964c1.085,0,1.724,0.414,2.17,0.678l0.414-4.164c-0.975-0.225-2.398-0.414-3.674-0.414
		c-3.978,0-6.152,2.701-6.152,6.564v2.701h-3.711v3.674h3.711V61.089z M198.77,50.959c0-2.888,1.574-5.739,4.84-5.739
		c3.301,0,4.874,2.777,4.874,5.739c0,3.227-1.01,6.677-4.874,6.677C199.779,57.636,198.77,54.147,198.77,50.959 M193.517,51.562
		c0,5.546,3.717,9.976,10.093,9.976c6.412,0,10.124-4.43,10.124-9.976c0-6.378-4.384-10.241-10.124-10.241
		C197.908,41.321,193.517,45.184,193.517,51.562 M172.591,61.089h5.026v-9.455c0-2.473,0.787-6.414,4.428-6.414
		c3.225,0,3.261,3.19,3.261,5.552v10.317h5.021V48.897c0-4.35-1.986-7.576-6.559-7.576c-2.625,0-4.802,1.201-6.071,3.076h-0.08
		V32.959h-5.026V61.089z M149.679,61.089h5.023v-9.455c0-2.473,0.789-6.414,4.426-6.414c3.224,0,3.262,3.19,3.262,5.552v10.317
		h5.029V48.897c0-4.35-1.99-7.576-6.564-7.576c-2.626,0-4.766,0.864-6.338,3.076h-0.08v-2.625h-4.758V61.089z M144.501,41.772
		h-5.029v9.452c0,2.473-0.787,6.412-4.424,6.412c-3.226,0-3.263-3.189-3.263-5.552V41.772h-5.026v12.19
		c0,4.35,1.989,7.576,6.564,7.576c2.624,0,4.801-1.199,6.338-3.076h0.076v2.627h4.764V41.772z M110.218,55.499
		c0-2.964,3.338-3.339,5.589-3.339h2.176c0,1.502-0.225,2.886-1.052,3.978c-0.787,1.045-1.985,1.727-3.523,1.727
		C111.608,57.864,110.218,57.147,110.218,55.499 M107.67,47.098c1.687-1.277,3.824-2.101,5.963-2.101c2.961,0,4.35,1.05,4.35,4.164
		h-2.775c-2.1,0-4.576,0.184-6.489,1.124c-1.913,0.939-3.298,2.626-3.298,5.516c0,3.673,3.336,5.737,6.749,5.737
		c2.288,0,4.801-1.199,5.962-3.338h0.077c0.039,0.598,0.039,1.871,0.224,2.889h4.425c-0.112-1.504-0.186-2.855-0.226-4.316
		c-0.037-1.424-0.074-2.888-0.074-4.838v-2.475c0-5.702-2.437-8.138-8.325-8.138c-2.139,0-4.763,0.564-6.714,1.464L107.67,47.098z
		 M92.555,61.089h5.026v-7.091c0-2.774,0-7.877,4.087-7.877c0.9,0,1.8,0.148,2.252,0.413v-5.063c-0.526-0.15-1.05-0.15-1.538-0.15
		c-3,0-5.064,3.04-5.289,4.836h-0.075v-4.385h-4.463V61.089z M74.403,61.089h5.251v-11.48h8.852v-4.126h-8.852v-6.449h9.302v-4.125
		H74.403V61.089z"/>
</g>
<g>
	<defs>
		<rect id="SVGID_5_" x="-155" y="-367.001" width="595.28" height="841.89"/>
	</defs>
	<clipPath id="SVGID_6_">
		<use xlink:href="#SVGID_5_"  overflow="visible"/>
	</clipPath>
	<polygon clip-path="url(#SVGID_6_)" points="239.282,74.425 246.316,74.425 246.316,76.489 241.82,76.489 241.82,79.718 
		246.1,79.718 246.1,81.78 241.82,81.78 241.82,87.522 239.282,87.522 	"/>
	
		<line clip-path="url(#SVGID_6_)" fill="none" stroke="#000000" stroke-width="2.538" stroke-miterlimit="10" x1="250.215" y1="87.522" x2="250.215" y2="74.425"/>
	<polygon clip-path="url(#SVGID_6_)" points="256.962,76.489 253.336,76.489 253.336,74.425 263.128,74.425 263.128,76.489 
		259.5,76.489 259.5,87.522 256.962,87.522 	"/>
</g>
<g>
	<path d="M25.632,126.706v6.816h-2.417v-17.704c1.829-0.081,2.933-0.121,3.312-0.121c5.14,0,7.71,1.72,7.71,5.16
		c0,3.98-2.271,5.97-6.815,5.97C27.147,126.827,26.551,126.787,25.632,126.706z M25.632,117.993v6.538
		c1.023,0.081,1.563,0.121,1.62,0.121c2.997,0,4.496-1.181,4.496-3.541c0-2.159-1.6-3.239-4.798-3.239
		C26.627,117.872,26.188,117.913,25.632,117.993z"/>
	<path d="M43.869,122.791c-0.5-0.347-1.003-0.52-1.511-0.52c-0.814,0-1.525,0.374-2.133,1.124c-0.608,0.749-0.913,1.651-0.913,2.707
		v7.42h-2.296v-12.943h2.296v2.066c0.838-1.538,2.083-2.308,3.734-2.308c0.411,0,1.003,0.072,1.776,0.218L43.869,122.791z"/>
	<path d="M45.609,127.021c0-1.998,0.538-3.611,1.613-4.84s2.491-1.843,4.248-1.843c1.853,0,3.292,0.59,4.314,1.771
		s1.535,2.817,1.535,4.912c0,2.087-0.524,3.732-1.571,4.937c-1.047,1.205-2.474,1.808-4.278,1.808c-1.845,0-3.283-0.608-4.314-1.825
		C46.125,130.723,45.609,129.083,45.609,127.021z M48.026,127.021c0,3.247,1.148,4.87,3.444,4.87c1.072,0,1.912-0.435,2.52-1.305
		c0.608-0.87,0.913-2.059,0.913-3.565c0-3.206-1.145-4.81-3.433-4.81c-1.047,0-1.883,0.427-2.507,1.281
		C48.338,124.346,48.026,125.522,48.026,127.021z"/>
	<path d="M58.323,138.599v-2.055c1.579,0,2.66-0.24,3.245-0.72c0.584-0.479,0.876-1.267,0.876-2.362v-10.949H59.87v-1.934h4.87
		v12.835c0,1.78-0.524,3.089-1.571,3.927S60.506,138.599,58.323,138.599z M63.277,115.685c0.395,0,0.731,0.14,1.009,0.417
		c0.278,0.278,0.417,0.61,0.417,0.997c0,0.396-0.139,0.731-0.417,1.01c-0.278,0.277-0.615,0.417-1.009,0.417
		c-0.395,0-0.729-0.14-1.003-0.417c-0.274-0.278-0.411-0.614-0.411-1.01c0-0.395,0.137-0.729,0.411-1.003
		C62.548,115.822,62.882,115.685,63.277,115.685z"/>
	<path d="M79.713,127.274h-9.33c0,1.515,0.415,2.679,1.245,3.492c0.733,0.71,1.676,1.064,2.828,1.064
		c1.313,0,2.409-0.383,3.287-1.148l0.967,1.655c-0.355,0.354-0.899,0.661-1.632,0.919c-0.918,0.338-1.941,0.508-3.069,0.508
		c-1.627,0-3.009-0.552-4.146-1.656c-1.265-1.216-1.897-2.852-1.897-4.906c0-2.135,0.648-3.847,1.946-5.137
		c1.16-1.151,2.533-1.728,4.121-1.728c1.845,0,3.291,0.52,4.338,1.559c1.016,0.999,1.523,2.325,1.523,3.977
		C79.894,126.38,79.833,126.848,79.713,127.274z M74.142,122.271c-1.023,0-1.881,0.33-2.574,0.991
		c-0.661,0.628-1.035,1.409-1.124,2.344h7.167c0-0.926-0.29-1.699-0.87-2.32C76.104,122.609,75.237,122.271,74.142,122.271z"/>
	<path d="M92.076,121.631l-1.136,1.619c-0.234-0.233-0.646-0.455-1.239-0.664c-0.592-0.21-1.174-0.314-1.746-0.314
		c-1.249,0-2.24,0.438-2.973,1.312c-0.733,0.874-1.1,2.072-1.1,3.595c0,1.515,0.375,2.669,1.124,3.463
		c0.75,0.793,1.789,1.19,3.118,1.19c1.031,0,2.07-0.399,3.118-1.197l0.906,1.934c-1.233,0.798-2.76,1.197-4.58,1.197
		c-1.765,0-3.223-0.593-4.375-1.777c-1.152-1.184-1.728-2.787-1.728-4.81c0-2.063,0.598-3.718,1.794-4.967s2.834-1.873,4.913-1.873
		c0.668,0,1.394,0.141,2.175,0.423C91.129,121.043,91.705,121.333,92.076,121.631z"/>
	<path d="M95.387,122.393h-1.499v-1.813h1.499v-2.707l2.296-0.882v3.589h3.553v1.813h-3.553v6.429c0,1.088,0.183,1.861,0.55,2.32
		c0.366,0.459,0.957,0.689,1.771,0.689c0.588,0,1.196-0.149,1.825-0.447l0.338,2.018c-0.951,0.242-1.994,0.363-3.13,0.363
		c-1.023,0-1.888-0.381-2.592-1.143c-0.705-0.762-1.058-1.722-1.058-2.882V122.393z"/>
	<path d="M124.282,117.051l-1.003,1.994c-1.217-0.902-2.409-1.354-3.577-1.354c-1.854,0-3.316,0.652-4.387,1.958
		c-1.071,1.305-1.607,3.033-1.607,5.184c0,2.047,0.525,3.694,1.577,4.943c1.052,1.249,2.484,1.873,4.296,1.873
		c1.289,0,2.333-0.387,3.13-1.16v-4.146h-2.453v-2.054h4.87V132c-0.645,0.548-1.543,0.989-2.695,1.323
		c-1.152,0.334-2.272,0.501-3.36,0.501c-2.441,0-4.369-0.827-5.782-2.483c-1.414-1.655-2.121-3.856-2.121-6.604
		c0-2.738,0.775-4.961,2.326-6.664c1.551-1.704,3.644-2.557,6.278-2.557C121.619,115.516,123.122,116.027,124.282,117.051z"/>
	<path d="M135.606,122.791c-0.5-0.347-1.003-0.52-1.511-0.52c-0.814,0-1.525,0.374-2.133,1.124
		c-0.608,0.749-0.913,1.651-0.913,2.707v7.42h-2.296v-12.943h2.296v2.066c0.838-1.538,2.083-2.308,3.734-2.308
		c0.411,0,1.003,0.072,1.776,0.218L135.606,122.791z"/>
	<path d="M137.346,127.021c0-1.998,0.538-3.611,1.613-4.84s2.491-1.843,4.248-1.843c1.854,0,3.291,0.59,4.314,1.771
		s1.535,2.817,1.535,4.912c0,2.087-0.524,3.732-1.571,4.937c-1.048,1.205-2.474,1.808-4.278,1.808c-1.845,0-3.283-0.608-4.314-1.825
		C137.861,130.723,137.346,129.083,137.346,127.021z M139.763,127.021c0,3.247,1.148,4.87,3.444,4.87
		c1.072,0,1.911-0.435,2.52-1.305s0.913-2.059,0.913-3.565c0-3.206-1.145-4.81-3.433-4.81c-1.047,0-1.883,0.427-2.507,1.281
		C140.075,124.346,139.763,125.522,139.763,127.021z"/>
	<path d="M153.648,120.579v8.254c0,1.999,0.866,2.998,2.599,2.998c0.757,0,1.45-0.218,2.078-0.653
		c0.629-0.435,1.044-0.938,1.245-1.511v-9.088h2.296v12.943h-2.296v-1.789c-0.258,0.508-0.775,0.974-1.553,1.396
		c-0.778,0.423-1.537,0.635-2.278,0.635c-1.418,0-2.504-0.407-3.257-1.221c-0.754-0.814-1.13-1.971-1.13-3.469v-8.496H153.648z"/>
	<path d="M167.293,132.81v5.789h-2.296v-18.02h2.296v1.063c0.87-0.87,1.922-1.305,3.154-1.305c1.837,0,3.267,0.572,4.29,1.716
		c1.022,1.145,1.534,2.82,1.534,5.027c0,1.966-0.516,3.571-1.547,4.816c-1.031,1.244-2.521,1.867-4.471,1.867
		c-0.548,0-1.135-0.098-1.759-0.291S167.47,133.06,167.293,132.81z M167.293,123.371v7.541c0.145,0.218,0.451,0.425,0.918,0.622
		c0.468,0.198,0.923,0.297,1.366,0.297c2.852,0,4.278-1.611,4.278-4.834c0-1.636-0.339-2.832-1.016-3.59
		c-0.677-0.757-1.761-1.136-3.251-1.136c-0.322,0-0.717,0.113-1.185,0.338C167.938,122.835,167.566,123.089,167.293,123.371z"/>
	<path d="M28.267,163.223h-5.052v-17.704c2.151-0.104,3.702-0.157,4.653-0.157c1.748,0,3.102,0.377,4.061,1.13
		s1.438,1.831,1.438,3.232c0,0.822-0.306,1.571-0.918,2.248c-0.613,0.677-1.29,1.1-2.03,1.269c1.401,0.339,2.423,0.898,3.063,1.68
		c0.64,0.782,0.96,1.846,0.96,3.19c0,1.556-0.57,2.796-1.71,3.723S30.104,163.223,28.267,163.223z M25.632,147.452v5.087
		c0.508,0.049,1.136,0.073,1.886,0.073c2.288,0,3.432-0.931,3.432-2.792c0-1.636-1.051-2.453-3.154-2.453
		C26.99,147.367,26.269,147.396,25.632,147.452z M25.632,154.413v6.755c0.83,0.081,1.466,0.121,1.91,0.121
		c1.515,0,2.62-0.284,3.317-0.852c0.697-0.568,1.045-1.473,1.045-2.714c0-1.151-0.333-2.002-0.997-2.55s-1.775-0.821-3.33-0.821
		L25.632,154.413z"/>
	<path d="M39.81,150.279v8.254c0,1.999,0.866,2.998,2.599,2.998c0.757,0,1.45-0.218,2.078-0.653
		c0.629-0.435,1.043-0.938,1.245-1.511v-9.088h2.296v12.943h-2.296v-1.789c-0.258,0.508-0.776,0.974-1.553,1.396
		s-1.537,0.635-2.278,0.635c-1.418,0-2.504-0.407-3.257-1.221c-0.753-0.814-1.13-1.971-1.13-3.469v-8.496H39.81z"/>
	<path d="M50.906,162.449l0.81-2.176c1.281,0.839,2.312,1.258,3.094,1.258c1.418,0,2.127-0.597,2.127-1.789
		c0-0.854-0.685-1.587-2.054-2.199c-1.056-0.483-1.767-0.851-2.133-1.1c-0.367-0.25-0.685-0.534-0.955-0.853
		c-0.27-0.318-0.471-0.656-0.604-1.015c-0.133-0.358-0.199-0.743-0.199-1.154c0-1.063,0.387-1.894,1.16-2.489
		c0.773-0.597,1.784-0.895,3.033-0.895c0.943,0,2.131,0.298,3.565,0.895l-0.653,2.127c-0.911-0.726-1.825-1.088-2.743-1.088
		c-0.548,0-1.009,0.129-1.384,0.387s-0.562,0.584-0.562,0.979c0,0.83,0.471,1.459,1.414,1.886l1.644,0.749
		c1.007,0.459,1.74,0.983,2.199,1.571c0.459,0.588,0.689,1.325,0.689,2.211c0,1.16-0.407,2.069-1.221,2.726
		s-1.941,0.985-3.384,0.985C53.387,163.465,52.106,163.126,50.906,162.449z"/>
	<path d="M63.476,163.223v-11.01H61.7v-1.934h4.073v12.943H63.476z M64.733,145.385c0.395,0,0.731,0.14,1.009,0.417
		c0.278,0.278,0.417,0.61,0.417,0.997c0,0.396-0.139,0.731-0.417,1.01c-0.278,0.277-0.615,0.417-1.009,0.417
		c-0.387,0-0.719-0.14-0.997-0.417c-0.278-0.278-0.417-0.614-0.417-1.01c0-0.395,0.137-0.729,0.411-1.003
		C64.004,145.522,64.338,145.385,64.733,145.385z"/>
	<path d="M77.98,163.223v-7.529c0-1.377-0.208-2.342-0.623-2.894c-0.415-0.552-1.11-0.828-2.084-0.828
		c-0.524,0-1.072,0.157-1.644,0.472c-0.572,0.313-1.011,0.7-1.317,1.16v9.619h-2.296v-12.943h1.571l0.725,1.668
		c0.757-1.272,1.994-1.909,3.71-1.909c2.836,0,4.254,1.724,4.254,5.172v8.013H77.98z"/>
	<path d="M95.034,156.975h-9.33c0,1.515,0.415,2.679,1.245,3.492c0.733,0.71,1.676,1.064,2.828,1.064
		c1.313,0,2.409-0.383,3.287-1.148l0.967,1.655c-0.355,0.354-0.899,0.661-1.632,0.919c-0.918,0.338-1.941,0.508-3.069,0.508
		c-1.627,0-3.009-0.552-4.146-1.656c-1.265-1.216-1.897-2.852-1.897-4.906c0-2.135,0.648-3.847,1.946-5.137
		c1.16-1.151,2.533-1.728,4.121-1.728c1.845,0,3.291,0.52,4.338,1.559c1.016,0.999,1.523,2.325,1.523,3.977
		C95.215,156.08,95.154,156.548,95.034,156.975z M89.462,151.972c-1.023,0-1.881,0.33-2.574,0.991
		c-0.661,0.628-1.035,1.409-1.124,2.344h7.167c0-0.926-0.29-1.699-0.87-2.32C91.424,152.31,90.558,151.972,89.462,151.972z"/>
	<path d="M97.38,162.449l0.81-2.176c1.281,0.839,2.312,1.258,3.094,1.258c1.418,0,2.127-0.597,2.127-1.789
		c0-0.854-0.685-1.587-2.054-2.199c-1.056-0.483-1.767-0.851-2.133-1.1c-0.367-0.25-0.685-0.534-0.955-0.853
		c-0.27-0.318-0.471-0.656-0.604-1.015c-0.133-0.358-0.199-0.743-0.199-1.154c0-1.063,0.387-1.894,1.16-2.489
		c0.773-0.597,1.784-0.895,3.033-0.895c0.943,0,2.131,0.298,3.565,0.895l-0.653,2.127c-0.911-0.726-1.825-1.088-2.743-1.088
		c-0.548,0-1.009,0.129-1.384,0.387s-0.562,0.584-0.562,0.979c0,0.83,0.471,1.459,1.414,1.886l1.644,0.749
		c1.007,0.459,1.74,0.983,2.199,1.571c0.459,0.588,0.689,1.325,0.689,2.211c0,1.16-0.407,2.069-1.221,2.726
		s-1.941,0.985-3.384,0.985C99.861,163.465,98.58,163.126,97.38,162.449z"/>
	<path d="M107.993,162.449l0.81-2.176c1.281,0.839,2.312,1.258,3.094,1.258c1.418,0,2.127-0.597,2.127-1.789
		c0-0.854-0.685-1.587-2.054-2.199c-1.056-0.483-1.767-0.851-2.133-1.1c-0.367-0.25-0.685-0.534-0.955-0.853
		c-0.27-0.318-0.471-0.656-0.604-1.015c-0.133-0.358-0.199-0.743-0.199-1.154c0-1.063,0.387-1.894,1.16-2.489
		c0.773-0.597,1.784-0.895,3.033-0.895c0.943,0,2.131,0.298,3.565,0.895l-0.653,2.127c-0.911-0.726-1.825-1.088-2.743-1.088
		c-0.548,0-1.009,0.129-1.384,0.387s-0.562,0.584-0.562,0.979c0,0.83,0.471,1.459,1.414,1.886l1.644,0.749
		c1.007,0.459,1.74,0.983,2.199,1.571c0.459,0.588,0.689,1.325,0.689,2.211c0,1.16-0.407,2.069-1.221,2.726
		s-1.941,0.985-3.384,0.985C110.474,163.465,109.193,163.126,107.993,162.449z"/>
	<path d="M137.097,162.606c-1.168,0.572-2.579,0.858-4.23,0.858c-1.684,0-2.985-0.498-3.903-1.493s-1.378-2.402-1.378-4.224
		c0-0.935,0.139-1.744,0.417-2.429c0.278-0.685,0.788-1.394,1.529-2.127c-1.136-1.128-1.704-2.301-1.704-3.517
		c0-1.233,0.465-2.286,1.396-3.16s2.177-1.312,3.74-1.312c1.66,0,2.941,0.366,3.843,1.1l-1.003,1.861
		c-0.918-0.766-1.74-1.148-2.465-1.148c-2.144,0-3.215,0.967-3.215,2.9c0,1.048,0.467,1.934,1.402,2.659h4.496v-2.212l2.296-0.882
		v3.13h3.009v1.934h-3.009v3.987c0,1.112,0.149,1.87,0.447,2.272c0.298,0.403,0.814,0.604,1.547,0.604
		c0.435,0,0.947-0.149,1.535-0.447l0.326,2.139c-0.846,0.242-1.813,0.363-2.9,0.363
		C138.523,163.465,137.798,163.179,137.097,162.606z M136.021,159.428v-4.882h-4.87c-0.766,0.982-1.148,2.014-1.148,3.094
		c0,2.514,1.229,3.771,3.686,3.771c1.096,0,1.917-0.197,2.465-0.593C136.065,160.447,136.021,159.984,136.021,159.428z"/>
	<path d="M154.225,163.223v-17.704h2.417v17.704H154.225z"/>
	<path d="M169.067,163.223v-7.529c0-1.377-0.208-2.342-0.623-2.894s-1.109-0.828-2.084-0.828c-0.524,0-1.072,0.157-1.644,0.472
		c-0.572,0.313-1.012,0.7-1.317,1.16v9.619h-2.296v-12.943h1.57l0.726,1.668c0.757-1.272,1.994-1.909,3.71-1.909
		c2.836,0,4.254,1.724,4.254,5.172v8.013H169.067z"/>
	<path d="M182.218,147.029c-0.468-0.161-0.902-0.242-1.306-0.242c-0.7,0-1.279,0.266-1.734,0.798
		c-0.455,0.531-0.683,1.204-0.683,2.018c0,0.218,0.021,0.443,0.061,0.677h2.635v1.934h-2.635v11.01h-2.296v-11.01h-1.886v-1.934
		h1.886c0-1.651,0.406-2.948,1.221-3.891c0.813-0.943,1.889-1.414,3.227-1.414c0.669,0,1.386,0.121,2.151,0.362L182.218,147.029z"/>
	<path d="M184.117,156.721c0-1.998,0.538-3.611,1.613-4.84c1.076-1.229,2.492-1.843,4.248-1.843c1.854,0,3.291,0.59,4.314,1.771
		s1.535,2.817,1.535,4.912c0,2.087-0.524,3.732-1.571,4.937c-1.048,1.205-2.474,1.808-4.278,1.808c-1.845,0-3.283-0.608-4.314-1.825
		S184.117,158.783,184.117,156.721z M186.534,156.721c0,3.247,1.148,4.87,3.444,4.87c1.071,0,1.911-0.435,2.52-1.305
		s0.913-2.059,0.913-3.565c0-3.206-1.145-4.81-3.433-4.81c-1.047,0-1.883,0.427-2.508,1.281
		C186.847,154.046,186.534,155.223,186.534,156.721z"/>
	<path d="M205.872,152.491c-0.5-0.347-1.003-0.52-1.511-0.52c-0.813,0-1.524,0.374-2.133,1.124
		c-0.608,0.749-0.912,1.651-0.912,2.707v7.42h-2.297v-12.943h2.297v2.066c0.837-1.538,2.082-2.308,3.733-2.308
		c0.411,0,1.003,0.072,1.776,0.218L205.872,152.491z"/>
	<path d="M224.037,163.223v-8.193c0-2.038-0.883-3.058-2.646-3.058c-0.557,0-1.076,0.171-1.56,0.514s-0.813,0.731-0.991,1.166v9.571
		h-2.296v-9.196c0-0.637-0.239-1.139-0.719-1.505s-1.114-0.55-1.903-0.55c-0.459,0-0.949,0.177-1.469,0.531
		c-0.52,0.355-0.888,0.746-1.105,1.173v9.547h-2.296v-12.943h1.498l0.762,1.499c0.886-1.16,1.994-1.74,3.323-1.74
		c1.853,0,3.149,0.576,3.892,1.728c0.258-0.491,0.737-0.901,1.438-1.232c0.701-0.33,1.422-0.495,2.163-0.495
		c1.338,0,2.373,0.396,3.106,1.19c0.732,0.794,1.1,1.907,1.1,3.342v8.652H224.037z"/>
	<path d="M237.502,161.736c-0.919,1.152-2.325,1.729-4.218,1.729c-1.016,0-1.896-0.369-2.641-1.106
		c-0.746-0.737-1.118-1.653-1.118-2.749c0-1.313,0.574-2.423,1.722-3.329c1.148-0.907,2.612-1.36,4.394-1.36
		c0.483,0,1.031,0.105,1.644,0.314c0-2.095-0.935-3.142-2.804-3.142c-1.435,0-2.538,0.387-3.312,1.16l-0.967-1.922
		c0.435-0.354,1.037-0.658,1.807-0.912s1.505-0.381,2.206-0.381c1.877,0,3.24,0.427,4.09,1.281c0.851,0.854,1.275,2.211,1.275,4.072
		v4.641c0,1.136,0.338,1.894,1.016,2.272v1.147c-0.936,0-1.634-0.133-2.098-0.398C238.035,162.787,237.703,162.349,237.502,161.736z
		 M237.284,156.866c-0.726-0.161-1.233-0.242-1.522-0.242c-1.16,0-2.107,0.299-2.841,0.895c-0.732,0.597-1.1,1.301-1.1,2.115
		c0,1.346,0.794,2.018,2.381,2.018c1.16,0,2.188-0.552,3.082-1.655V156.866z"/>
	<path d="M244.61,152.093h-1.498v-1.813h1.498v-2.707l2.296-0.882v3.589h3.554v1.813h-3.554v6.429c0,1.088,0.184,1.861,0.55,2.32
		c0.367,0.459,0.957,0.689,1.771,0.689c0.588,0,1.196-0.149,1.825-0.447l0.338,2.018c-0.95,0.242-1.993,0.363-3.13,0.363
		c-1.022,0-1.887-0.381-2.592-1.143s-1.058-1.722-1.058-2.882V152.093z"/>
	<path d="M255.307,163.223v-11.01h-1.776v-1.934h4.072v12.943H255.307z M256.563,145.385c0.395,0,0.731,0.14,1.009,0.417
		c0.278,0.278,0.417,0.61,0.417,0.997c0,0.396-0.139,0.731-0.417,1.01c-0.277,0.277-0.614,0.417-1.009,0.417
		c-0.387,0-0.719-0.14-0.997-0.417c-0.277-0.278-0.417-0.614-0.417-1.01c0-0.395,0.137-0.729,0.411-1.003
		C255.834,145.522,256.169,145.385,256.563,145.385z"/>
	<path d="M261,156.721c0-1.998,0.538-3.611,1.613-4.84c1.076-1.229,2.492-1.843,4.248-1.843c1.854,0,3.291,0.59,4.314,1.771
		s1.535,2.817,1.535,4.912c0,2.087-0.524,3.732-1.571,4.937c-1.048,1.205-2.474,1.808-4.278,1.808c-1.845,0-3.283-0.608-4.314-1.825
		S261,158.783,261,156.721z M263.417,156.721c0,3.247,1.148,4.87,3.444,4.87c1.071,0,1.911-0.435,2.52-1.305
		s0.913-2.059,0.913-3.565c0-3.206-1.145-4.81-3.433-4.81c-1.047,0-1.883,0.427-2.508,1.281
		C263.729,154.046,263.417,155.223,263.417,156.721z"/>
	<path d="M283.686,163.223v-7.529c0-1.377-0.208-2.342-0.623-2.894s-1.109-0.828-2.084-0.828c-0.524,0-1.072,0.157-1.644,0.472
		c-0.572,0.313-1.012,0.7-1.317,1.16v9.619h-2.296v-12.943h1.57l0.726,1.668c0.757-1.272,1.994-1.909,3.71-1.909
		c2.836,0,4.254,1.724,4.254,5.172v8.013H283.686z"/>
	<path d="M22.418,192.113l0.882-2.224c0.451,0.33,1.013,0.606,1.686,0.828s1.275,0.332,1.807,0.332c0.943,0,1.7-0.258,2.272-0.773
		c0.572-0.516,0.858-1.172,0.858-1.97c0-0.597-0.159-1.15-0.478-1.662s-1.118-1.069-2.399-1.674l-1.426-0.664
		c-1.208-0.564-2.053-1.233-2.532-2.007c-0.479-0.773-0.719-1.703-0.719-2.791c0-1.321,0.467-2.417,1.402-3.287
		s2.135-1.306,3.601-1.306c1.958,0,3.319,0.318,4.085,0.955l-0.713,2.103c-0.322-0.233-0.814-0.459-1.475-0.677
		s-1.273-0.326-1.837-0.326c-0.822,0-1.468,0.233-1.939,0.701c-0.471,0.467-0.707,1.067-0.707,1.801
		c0,0.451,0.084,0.862,0.254,1.232c0.169,0.37,0.405,0.681,0.707,0.931c0.302,0.25,0.92,0.6,1.855,1.051l1.45,0.689
		c1.208,0.572,2.056,1.255,2.544,2.048c0.487,0.794,0.731,1.803,0.731,3.027c0,1.329-0.534,2.458-1.601,3.384
		c-1.068,0.927-2.496,1.39-4.284,1.39C24.871,193.225,23.53,192.854,22.418,192.113z"/>
	<path d="M40.475,195.122c-0.298,0.822-0.924,1.507-1.879,2.055c-0.955,0.548-2.02,0.822-3.196,0.822v-2.055
		c0.958,0,1.78-0.224,2.465-0.671c0.685-0.447,1.027-0.993,1.027-1.638c0-0.709-0.125-1.408-0.375-2.097
		c-0.25-0.688-0.572-1.541-0.967-2.556l-3.504-9.004h2.344l3.807,10.007l3.42-10.007h2.344L40.475,195.122z"/>
	<path d="M47.486,192.149l0.81-2.176c1.281,0.839,2.312,1.258,3.094,1.258c1.418,0,2.127-0.597,2.127-1.789
		c0-0.854-0.685-1.587-2.054-2.199c-1.056-0.483-1.767-0.851-2.133-1.1c-0.367-0.25-0.685-0.534-0.955-0.853
		c-0.27-0.318-0.471-0.656-0.604-1.015c-0.133-0.358-0.199-0.743-0.199-1.154c0-1.063,0.387-1.894,1.16-2.489
		c0.773-0.597,1.784-0.895,3.033-0.895c0.943,0,2.131,0.298,3.565,0.895l-0.653,2.127c-0.911-0.726-1.825-1.088-2.743-1.088
		c-0.548,0-1.009,0.129-1.384,0.387s-0.562,0.584-0.562,0.979c0,0.83,0.471,1.459,1.414,1.886l1.644,0.749
		c1.007,0.459,1.74,0.983,2.199,1.571c0.459,0.588,0.689,1.325,0.689,2.211c0,1.16-0.407,2.069-1.221,2.726
		s-1.941,0.985-3.384,0.985C49.968,193.165,48.687,192.826,47.486,192.149z"/>
	<path d="M59.767,181.793h-1.499v-1.813h1.499v-2.707l2.296-0.882v3.589h3.553v1.813h-3.553v6.429c0,1.088,0.183,1.861,0.55,2.32
		c0.366,0.459,0.957,0.689,1.771,0.689c0.588,0,1.196-0.149,1.825-0.447l0.338,2.018c-0.951,0.242-1.994,0.363-3.13,0.363
		c-1.023,0-1.888-0.381-2.592-1.143c-0.705-0.762-1.058-1.722-1.058-2.882V181.793z"/>
	<path d="M80.252,186.675h-9.33c0,1.515,0.415,2.679,1.245,3.492c0.733,0.71,1.676,1.064,2.828,1.064
		c1.313,0,2.409-0.383,3.287-1.148l0.967,1.655c-0.355,0.354-0.899,0.661-1.632,0.919c-0.918,0.338-1.941,0.508-3.069,0.508
		c-1.627,0-3.009-0.552-4.146-1.656c-1.265-1.216-1.897-2.852-1.897-4.906c0-2.135,0.648-3.847,1.946-5.137
		c1.16-1.151,2.533-1.728,4.121-1.728c1.845,0,3.291,0.52,4.338,1.559c1.016,0.999,1.523,2.325,1.523,3.977
		C80.434,185.78,80.373,186.248,80.252,186.675z M74.681,181.672c-1.023,0-1.881,0.33-2.574,0.991
		c-0.661,0.628-1.035,1.409-1.124,2.344h7.167c0-0.926-0.29-1.699-0.87-2.32C76.643,182.01,75.777,181.672,74.681,181.672z"/>
	<path d="M98.43,192.923v-8.193c0-2.038-0.882-3.058-2.646-3.058c-0.556,0-1.076,0.171-1.559,0.514s-0.814,0.731-0.991,1.166v9.571
		h-2.296v-9.196c0-0.637-0.24-1.139-0.719-1.505c-0.479-0.366-1.114-0.55-1.903-0.55c-0.459,0-0.949,0.177-1.469,0.531
		c-0.52,0.355-0.888,0.746-1.105,1.173v9.547h-2.296v-12.943h1.499l0.762,1.499c0.886-1.16,1.994-1.74,3.323-1.74
		c1.853,0,3.15,0.576,3.891,1.728c0.258-0.491,0.737-0.901,1.438-1.232c0.701-0.33,1.422-0.495,2.164-0.495
		c1.337,0,2.373,0.396,3.106,1.19c0.733,0.794,1.1,1.907,1.1,3.342v8.652H98.43z"/>
	<path d="M103.737,192.149l0.81-2.176c1.281,0.839,2.312,1.258,3.094,1.258c1.418,0,2.127-0.597,2.127-1.789
		c0-0.854-0.685-1.587-2.054-2.199c-1.056-0.483-1.767-0.851-2.133-1.1c-0.367-0.25-0.685-0.534-0.955-0.853
		c-0.27-0.318-0.471-0.656-0.604-1.015c-0.133-0.358-0.199-0.743-0.199-1.154c0-1.063,0.387-1.894,1.16-2.489
		c0.773-0.597,1.784-0.895,3.033-0.895c0.943,0,2.131,0.298,3.565,0.895l-0.653,2.127c-0.911-0.726-1.825-1.088-2.743-1.088
		c-0.548,0-1.009,0.129-1.384,0.387s-0.562,0.584-0.562,0.979c0,0.83,0.471,1.459,1.414,1.886l1.644,0.749
		c1.007,0.459,1.74,0.983,2.199,1.571c0.459,0.588,0.689,1.325,0.689,2.211c0,1.16-0.407,2.069-1.221,2.726
		s-1.941,0.985-3.384,0.985C106.219,193.165,104.938,192.826,103.737,192.149z"/>
	<path d="M125.844,177.394v4.919h5.85v2.054h-5.85v6.381h8.024v2.176h-10.441v-17.704h10.575v2.175H125.844z"/>
	<path d="M145.063,192.923v-7.529c0-1.377-0.209-2.342-0.623-2.894c-0.415-0.552-1.11-0.828-2.084-0.828
		c-0.524,0-1.072,0.157-1.644,0.472c-0.572,0.313-1.011,0.7-1.317,1.16v9.619h-2.296v-12.943h1.571l0.725,1.668
		c0.757-1.272,1.994-1.909,3.71-1.909c2.835,0,4.253,1.724,4.253,5.172v8.013H145.063z"/>
	<path d="M150.743,196.464l1.245-1.837c1.337,0.895,2.569,1.341,3.697,1.341c1.04,0,1.859-0.179,2.46-0.537
		c0.6-0.358,0.9-0.804,0.9-1.336c0-1.047-0.758-1.57-2.272-1.57c-0.258,0-0.725,0.064-1.401,0.193s-1.205,0.193-1.584,0.193
		c-1.836,0-2.755-0.693-2.755-2.079c0-0.427,0.216-0.813,0.646-1.16c0.431-0.346,0.965-0.596,1.602-0.749
		c-1.821-0.854-2.731-2.337-2.731-4.447c0-1.354,0.472-2.481,1.414-3.384s2.106-1.354,3.492-1.354c1.273,0,2.268,0.262,2.985,0.785
		l1.147-1.378l1.499,1.414l-1.378,1.04c0.588,0.766,0.883,1.764,0.883,2.997c0,1.305-0.407,2.4-1.221,3.287
		c-0.814,0.886-1.882,1.394-3.203,1.522l-1.896,0.193c-0.227,0.024-0.528,0.11-0.907,0.26s-0.567,0.345-0.567,0.586
		c0,0.331,0.395,0.495,1.184,0.495c0.347,0,0.887-0.062,1.62-0.187c0.732-0.125,1.276-0.188,1.631-0.188
		c1.273,0,2.267,0.304,2.979,0.912s1.069,1.452,1.069,2.532c0,1.192-0.534,2.155-1.602,2.888c-1.067,0.733-2.419,1.101-4.054,1.101
		c-0.839,0-1.721-0.149-2.647-0.447C152.053,197.253,151.307,196.891,150.743,196.464z M155.613,181.587
		c-0.798,0-1.448,0.282-1.951,0.846c-0.504,0.564-0.756,1.249-0.756,2.055c0,0.902,0.244,1.649,0.731,2.242
		c0.487,0.592,1.146,0.888,1.976,0.888c0.813,0,1.45-0.287,1.909-0.863c0.46-0.576,0.689-1.332,0.689-2.267
		c0-0.806-0.248-1.49-0.743-2.055C156.973,181.869,156.354,181.587,155.613,181.587z"/>
	<path d="M165.344,192.923v-11.01h-1.776v-1.934h4.072v12.943H165.344z M166.601,175.085c0.395,0,0.731,0.14,1.009,0.417
		c0.278,0.278,0.417,0.61,0.417,0.997c0,0.396-0.139,0.731-0.417,1.01c-0.277,0.277-0.614,0.417-1.009,0.417
		c-0.387,0-0.719-0.14-0.997-0.417c-0.277-0.278-0.417-0.614-0.417-1.01c0-0.395,0.137-0.729,0.411-1.003
		C165.871,175.223,166.206,175.085,166.601,175.085z"/>
	<path d="M179.848,192.923v-7.529c0-1.377-0.208-2.342-0.623-2.894s-1.109-0.828-2.084-0.828c-0.524,0-1.072,0.157-1.644,0.472
		c-0.572,0.313-1.012,0.7-1.317,1.16v9.619h-2.296v-12.943h1.57l0.726,1.668c0.757-1.272,1.994-1.909,3.71-1.909
		c2.836,0,4.254,1.724,4.254,5.172v8.013H179.848z"/>
	<path d="M196.901,186.675h-9.33c0,1.515,0.415,2.679,1.245,3.492c0.733,0.71,1.676,1.064,2.828,1.064
		c1.313,0,2.408-0.383,3.287-1.148l0.967,1.655c-0.354,0.354-0.898,0.661-1.632,0.919c-0.918,0.338-1.941,0.508-3.069,0.508
		c-1.628,0-3.01-0.552-4.146-1.656c-1.265-1.216-1.897-2.852-1.897-4.906c0-2.135,0.648-3.847,1.946-5.137
		c1.16-1.151,2.533-1.728,4.121-1.728c1.845,0,3.291,0.52,4.338,1.559c1.016,0.999,1.522,2.325,1.522,3.977
		C197.082,185.78,197.022,186.248,196.901,186.675z M191.33,181.672c-1.023,0-1.881,0.33-2.574,0.991
		c-0.66,0.628-1.035,1.409-1.124,2.344h7.167c0-0.926-0.29-1.699-0.87-2.32C193.292,182.01,192.426,181.672,191.33,181.672z"/>
	<path d="M210.995,186.675h-9.33c0,1.515,0.415,2.679,1.245,3.492c0.733,0.71,1.676,1.064,2.828,1.064
		c1.313,0,2.408-0.383,3.287-1.148l0.967,1.655c-0.354,0.354-0.898,0.661-1.632,0.919c-0.918,0.338-1.941,0.508-3.069,0.508
		c-1.628,0-3.01-0.552-4.146-1.656c-1.265-1.216-1.897-2.852-1.897-4.906c0-2.135,0.648-3.847,1.946-5.137
		c1.16-1.151,2.533-1.728,4.121-1.728c1.845,0,3.291,0.52,4.338,1.559c1.016,0.999,1.522,2.325,1.522,3.977
		C211.176,185.78,211.116,186.248,210.995,186.675z M205.424,181.672c-1.023,0-1.881,0.33-2.574,0.991
		c-0.66,0.628-1.035,1.409-1.124,2.344h7.167c0-0.926-0.29-1.699-0.87-2.32C207.386,182.01,206.52,181.672,205.424,181.672z"/>
	<path d="M221.221,182.191c-0.5-0.347-1.003-0.52-1.511-0.52c-0.813,0-1.524,0.374-2.133,1.124
		c-0.608,0.749-0.912,1.651-0.912,2.707v7.42h-2.297v-12.943h2.297v2.066c0.837-1.538,2.082-2.308,3.733-2.308
		c0.411,0,1.003,0.072,1.776,0.218L221.221,182.191z"/>
	<path d="M225.513,192.923v-11.01h-1.776v-1.934h4.072v12.943H225.513z M226.77,175.085c0.395,0,0.731,0.14,1.009,0.417
		c0.278,0.278,0.417,0.61,0.417,0.997c0,0.396-0.139,0.731-0.417,1.01c-0.277,0.277-0.614,0.417-1.009,0.417
		c-0.387,0-0.719-0.14-0.997-0.417c-0.277-0.278-0.417-0.614-0.417-1.01c0-0.395,0.137-0.729,0.411-1.003
		C226.04,175.223,226.375,175.085,226.77,175.085z"/>
	<path d="M240.017,192.923v-7.529c0-1.377-0.208-2.342-0.623-2.894s-1.109-0.828-2.084-0.828c-0.524,0-1.072,0.157-1.644,0.472
		c-0.572,0.313-1.012,0.7-1.317,1.16v9.619h-2.296v-12.943h1.57l0.726,1.668c0.757-1.272,1.994-1.909,3.71-1.909
		c2.836,0,4.254,1.724,4.254,5.172v8.013H240.017z"/>
	<path d="M245.699,196.464l1.245-1.837c1.337,0.895,2.569,1.341,3.697,1.341c1.04,0,1.859-0.179,2.46-0.537
		c0.6-0.358,0.9-0.804,0.9-1.336c0-1.047-0.758-1.57-2.272-1.57c-0.258,0-0.725,0.064-1.401,0.193s-1.205,0.193-1.584,0.193
		c-1.836,0-2.755-0.693-2.755-2.079c0-0.427,0.216-0.813,0.646-1.16c0.431-0.346,0.965-0.596,1.602-0.749
		c-1.821-0.854-2.731-2.337-2.731-4.447c0-1.354,0.472-2.481,1.414-3.384s2.106-1.354,3.492-1.354c1.273,0,2.268,0.262,2.985,0.785
		l1.147-1.378l1.499,1.414l-1.378,1.04c0.588,0.766,0.883,1.764,0.883,2.997c0,1.305-0.407,2.4-1.221,3.287
		c-0.814,0.886-1.882,1.394-3.203,1.522l-1.896,0.193c-0.227,0.024-0.528,0.11-0.907,0.26s-0.567,0.345-0.567,0.586
		c0,0.331,0.395,0.495,1.184,0.495c0.347,0,0.887-0.062,1.62-0.187c0.732-0.125,1.276-0.188,1.631-0.188
		c1.273,0,2.267,0.304,2.979,0.912s1.069,1.452,1.069,2.532c0,1.192-0.534,2.155-1.602,2.888c-1.067,0.733-2.419,1.101-4.054,1.101
		c-0.839,0-1.721-0.149-2.647-0.447C247.009,197.253,246.263,196.891,245.699,196.464z M250.569,181.587
		c-0.798,0-1.448,0.282-1.951,0.846c-0.504,0.564-0.756,1.249-0.756,2.055c0,0.902,0.244,1.649,0.731,2.242
		c0.487,0.592,1.146,0.888,1.976,0.888c0.813,0,1.45-0.287,1.909-0.863c0.46-0.576,0.689-1.332,0.689-2.267
		c0-0.806-0.248-1.49-0.743-2.055C251.929,181.869,251.311,181.587,250.569,181.587z"/>
</g>
</svg>
