<svg version="1.1" xmlns="http://www.w3.org/2000/svg" xmlns:xlink="http://www.w3.org/1999/xlink" width="579" height="455"><defs/><g><g/><g/><g/><g/><g/><g/><g/><g/><g/><g/><g/><g><rect fill="white" stroke="none" x="0" y="0" width="579" height="455"/></g><g><text fill="black" stroke="none" font-family="sans-serif" font-size="16.5pt" font-style="normal" font-weight="normal" text-decoration="normal" x="102.61923413111845" y="24.50280495" text-anchor="start" dominant-baseline="alphabetic">Sample Use-Case 1 - Machine Set-Up</text></g><g/><g><path fill="none" stroke="black" paint-order="fill stroke markers" d=" M 41.77533043362501 128.80307802049998 L 41.77533043362501 455.5071440205" stroke-miterlimit="10" stroke-width="1.3612669416666667" stroke-dasharray="12.565541,5.445067766666667"/><path fill="none" stroke="black" paint-order="fill stroke markers" d=" M 200.04265441777216 128.80307802049998 L 200.04265441777216 455.5071440205" stroke-miterlimit="10" stroke-width="1.3612669416666667" stroke-dasharray="12.565541,5.445067766666667"/><path fill="none" stroke="black" paint-order="fill stroke markers" d=" M 320.8603001101224 128.80307802049998 L 320.8603001101224 455.5071440205" stroke-miterlimit="10" stroke-width="1.3612669416666667" stroke-dasharray="12.565541,5.445067766666667"/><path fill="none" stroke="black" paint-order="fill stroke markers" d=" M 516.0172607534166 128.80307802049998 L 516.0172607534166 455.5071440205" stroke-miterlimit="10" stroke-width="1.3612669416666667" stroke-dasharray="12.565541,5.445067766666667"/></g><g><path fill="none" stroke="none"/><g><path fill="white" stroke="black" paint-order="fill stroke markers" d=" M 8.167601650000002 84.86138114350003 L 75.38305921725001 84.86138114350003 L 75.38305921725001 128.8030780205 L 8.167601650000002 128.8030780205 L 8.167601650000002 84.86138114350003 Z" stroke-miterlimit="10" stroke-width="2.613632528" stroke-dasharray=""/></g><g><text fill="black" stroke="none" font-family="sans-serif" font-size="11pt" font-style="normal" font-weight="normal" text-decoration="normal" x="25.891297230500008" y="112.4678747205" text-anchor="start" dominant-baseline="alphabetic">MES</text></g><g><path fill="white" stroke="black" paint-order="fill stroke markers" d=" M 209.35372029877215 59.70516806150002 A 9.311065881 9.311065881 0 1 1 209.3537156432396 59.69585699717086 M 200.04265441777216 69.01623394250002 L 200.04265441777216 88.94518196850002 M 188.28130804177215 76.20372339450002 L 211.80400079377216 76.20372339450002 M 200.04265441777216 88.94518196850002 L 188.28130804177215 107.56731373050002 M 200.04265441777216 88.94518196850002 L 211.80400079377216 107.56731373050002" stroke-miterlimit="10" stroke-width="2.7769845610000004" stroke-dasharray=""/></g><g><text fill="black" stroke="none" font-family="sans-serif" font-size="11pt" font-style="normal" font-weight="normal" text-decoration="normal" x="165.40774383427606" y="123.90251703050002" text-anchor="start" dominant-baseline="alphabetic">Logistician</text></g><g><path fill="white" stroke="black" paint-order="fill stroke markers" d=" M 330.1713659911224 59.70516806150002 A 9.311065881 9.311065881 0 1 1 330.17136133558984 59.69585699717086 M 320.8603001101224 69.01623394250002 L 320.8603001101224 88.94518196850002 M 309.0989537341224 76.20372339450002 L 332.6216464861224 76.20372339450002 M 320.8603001101224 88.94518196850002 L 309.0989537341224 107.56731373050002 M 320.8603001101224 88.94518196850002 L 332.6216464861224 107.56731373050002" stroke-miterlimit="10" stroke-width="2.7769845610000004" stroke-dasharray=""/></g><g><text fill="black" stroke="none" font-family="sans-serif" font-size="11pt" font-style="normal" font-weight="normal" text-decoration="normal" x="291.93403820826694" y="123.90251703050002" text-anchor="start" dominant-baseline="alphabetic">Operator</text></g><path fill="none" stroke="none"/><g><path fill="white" stroke="black" paint-order="fill stroke markers" d=" M 460.8132642695963 84.86138114350003 L 571.221257237237 84.86138114350003 L 571.221257237237 128.8030780205 L 460.8132642695963 128.8030780205 L 460.8132642695963 84.86138114350003 Z" stroke-miterlimit="10" stroke-width="2.613632528" stroke-dasharray=""/></g><g><text fill="black" stroke="none" font-family="sans-serif" font-size="11pt" font-style="normal" font-weight="normal" text-decoration="normal" x="478.5369598500963" y="112.4678747205" text-anchor="start" dominant-baseline="alphabetic">Middleware</text></g></g><g><path fill="white" stroke="black" paint-order="fill stroke markers" d=" M 507.8496591034166 182.70924891049998 L 524.1848624034167 182.70924891049998 L 524.1848624034167 398.3339324705 L 507.8496591034166 398.3339324705 L 507.8496591034166 182.70924891049998" stroke-miterlimit="10" stroke-width="1.3612669416666667" stroke-dasharray=""/><path fill="white" stroke="black" paint-order="fill stroke markers" d=" M 191.87505276777216 244.78302145049997 L 208.21025606777215 244.78302145049997 L 208.21025606777215 290.5215906905 L 191.87505276777216 290.5215906905 L 191.87505276777216 244.78302145049997" stroke-miterlimit="10" stroke-width="1.3612669416666667" stroke-dasharray=""/><path fill="white" stroke="black" paint-order="fill stroke markers" d=" M 312.6926984601224 336.2601599305 L 329.0279017601224 336.2601599305 L 329.0279017601224 398.3339324705 L 312.6926984601224 398.3339324705 L 312.6926984601224 336.2601599305" stroke-miterlimit="10" stroke-width="1.3612669416666667" stroke-dasharray=""/><g><g><rect fill="white" stroke="none" x="104.09457511336457" y="161.4734846205" width="341.4358393103125" height="21.23576429"/></g><text fill="black" stroke="none" font-family="sans-serif" font-size="11pt" font-style="normal" font-weight="normal" text-decoration="normal" x="106.54485560836457" y="176.17516759049997" text-anchor="start" dominant-baseline="alphabetic">Start machine set-up (with planned production start)</text></g><g><path fill="none" stroke="black" paint-order="fill stroke markers" d=" M 41.77533043362501 182.70924891049998 L 505.1271252200833 182.70924891049998" stroke-miterlimit="10" stroke-width="1.3612669416666667" stroke-dasharray=""/><g transform="translate(507.8496591034166,182.70924891049998) translate(-507.8496591034166,-182.70924891049998)"><path fill="black" stroke="none" paint-order="stroke fill markers" d=" M 494.23698968674995 175.90291420216664 L 507.8496591034166 182.70924891049998 L 494.23698968674995 189.51558361883332 Z"/></g></g><g><g><rect fill="white" stroke="none" x="272.8775057649108" y="207.21205386049996" width="161.35718025269531" height="21.23576429"/></g><g><rect fill="white" stroke="none" x="272.8775057649108" y="223.54725716049995" width="170.3049036413672" height="21.23576429"/></g><text fill="black" stroke="none" font-family="sans-serif" font-size="11pt" font-style="normal" font-weight="normal" text-decoration="normal" x="275.3277862599108" y="221.91373683049994" text-anchor="start" dominant-baseline="alphabetic">Prepare machine set-up</text><text fill="black" stroke="none" font-family="sans-serif" font-size="11pt" font-style="normal" font-weight="normal" text-decoration="normal" x="275.3277862599108" y="238.24894013049993" text-anchor="start" dominant-baseline="alphabetic">(deliver tool and material)</text></g><g><path fill="none" stroke="black" paint-order="fill stroke markers" d=" M 507.8496591034166 244.78302145049997 L 210.9327899511055 244.78302145049997" stroke-miterlimit="10" stroke-width="1.3612669416666667" stroke-dasharray=""/><g transform="translate(208.21025606777215,244.78302145049997) translate(-208.21025606777215,-244.78302145049997)"><path fill="black" stroke="none" paint-order="stroke fill markers" d=" M 221.82292548443883 237.97668674216663 L 208.21025606777215 244.78302145049997 L 221.82292548443883 251.5893561588333 Z"/></g></g><g><g><rect fill="white" stroke="none" x="296.49595974440297" y="269.28582640049996" width="123.06799568238281" height="21.23576429"/></g><text fill="black" stroke="none" font-family="sans-serif" font-size="11pt" font-style="normal" font-weight="normal" text-decoration="normal" x="298.946240239403" y="283.98750937049994" text-anchor="start" dominant-baseline="alphabetic">Preparing finished</text></g><g><path fill="none" stroke="black" paint-order="fill stroke markers" d=" M 208.21025606777215 290.5215906905 L 505.1271252200833 290.5215906905" stroke-miterlimit="10" stroke-width="1.3612669416666667" stroke-dasharray="6.53408132"/><g transform="translate(507.8496591034166,290.5215906905) translate(-507.8496591034166,-290.5215906905)"><path fill="black" stroke="none" paint-order="stroke fill markers" d=" M 494.23698968674995 283.71525598216664 L 507.8496591034166 290.5215906905 L 494.23698968674995 297.3279253988333 Z"/></g></g><g><g><rect fill="white" stroke="none" x="348.357892331789" y="315.02439564049996" width="140.16177619996094" height="21.23576429"/></g><text fill="black" stroke="none" font-family="sans-serif" font-size="11pt" font-style="normal" font-weight="normal" text-decoration="normal" x="350.808172826789" y="329.72607861049994" text-anchor="start" dominant-baseline="alphabetic">Start machine set-up</text></g><g><path fill="none" stroke="black" paint-order="fill stroke markers" d=" M 507.8496591034166 336.2601599305 L 331.7504356434557 336.2601599305" stroke-miterlimit="10" stroke-width="1.3612669416666667" stroke-dasharray=""/><g transform="translate(329.0279017601224,336.2601599305) translate(-329.0279017601224,-336.2601599305)"><path fill="black" stroke="none" paint-order="stroke fill markers" d=" M 342.6405711767891 329.45382522216664 L 329.0279017601224 336.2601599305 L 342.6405711767891 343.0664946388333 Z"/></g></g><g><g><rect fill="white" stroke="none" x="349.58195239038275" y="360.76296488049996" width="100.24768318238281" height="21.23576429"/></g><g><rect fill="white" stroke="none" x="349.58195239038275" y="377.09816818049995" width="137.71365608277344" height="21.23576429"/></g><text fill="black" stroke="none" font-family="sans-serif" font-size="11pt" font-style="normal" font-weight="normal" text-decoration="normal" x="352.03223288538277" y="375.46464785049994" text-anchor="start" dominant-baseline="alphabetic">finished set-up</text><text fill="black" stroke="none" font-family="sans-serif" font-size="11pt" font-style="normal" font-weight="normal" text-decoration="normal" x="352.03223288538277" y="391.79985115049993" text-anchor="start" dominant-baseline="alphabetic">(machine is running)</text></g><g><path fill="none" stroke="black" paint-order="fill stroke markers" d=" M 329.0279017601224 398.3339324705 L 505.1271252200833 398.3339324705" stroke-miterlimit="10" stroke-width="1.3612669416666667" stroke-dasharray="6.53408132"/><g transform="translate(507.8496591034166,398.3339324705) translate(-507.8496591034166,-398.3339324705)"><path fill="black" stroke="none" paint-order="stroke fill markers" d=" M 494.23698968674995 391.52759776216664 L 507.8496591034166 398.3339324705 L 494.23698968674995 405.1402671788333 Z"/></g></g></g></g></svg>