<svg version="1.1" xmlns="http://www.w3.org/2000/svg" xmlns:xlink="http://www.w3.org/1999/xlink" width="766" height="1410"><defs/><g><g/><g/><g/><g/><g/><g/><g/><g/><g/><g/><g/><g/><g/><g/><g/><g/><g/><g/><g/><g/><g/><g/><g/><g/><g><rect fill="white" stroke="none" x="0" y="0" width="766" height="1410"/></g><g><text fill="black" stroke="none" font-family="sans-serif" font-size="16.5pt" font-style="normal" font-weight="normal" text-decoration="normal" x="233.48008201826167" y="24.50280495" text-anchor="start" dominant-baseline="alphabetic">Use-Case 6 - Value Monitoring</text></g><g/><g><path fill="none" stroke="black" paint-order="fill stroke markers" d=" M 38.314330165625 140.0907035008 L 38.314330165625 1410.9695202407995" stroke-miterlimit="10" stroke-width="1.3612669416666667" stroke-dasharray="12.565541,5.445067766666667"/><path fill="none" stroke="black" paint-order="fill stroke markers" d=" M 136.325549965625 140.0907035008 L 136.325549965625 1410.9695202407995" stroke-miterlimit="10" stroke-width="1.3612669416666667" stroke-dasharray="12.565541,5.445067766666667"/><path fill="none" stroke="black" paint-order="fill stroke markers" d=" M 344.58992107773435 140.0907035008 L 344.58992107773435 1410.9695202407995" stroke-miterlimit="10" stroke-width="1.3612669416666667" stroke-dasharray="12.565541,5.445067766666667"/><path fill="none" stroke="black" paint-order="fill stroke markers" d=" M 579.6609594798176 140.0907035008 L 579.6609594798176 1410.9695202407995" stroke-miterlimit="10" stroke-width="1.3612669416666667" stroke-dasharray="12.565541,5.445067766666667"/></g><g><g><path fill="white" stroke="black" paint-order="fill stroke markers" d=" M 62.572107066125 74.65187908099999 A 24.2577769005 24.2577769005 0 1 1 62.572094937237566 74.62762130814244 M 12.668060984625 101.13124363029999 L 61.183614785625 101.13124363029999" stroke-miterlimit="10" stroke-width="2.7769845610000004" stroke-dasharray=""/></g><g><text fill="black" stroke="none" font-family="sans-serif" font-size="11pt" font-style="normal" font-weight="normal" text-decoration="normal" x="8.167601650000002" y="118.8549392108" text-anchor="start" dominant-baseline="alphabetic">Machine-</text><text fill="black" stroke="none" font-family="sans-serif" font-size="11pt" font-style="normal" font-weight="normal" text-decoration="normal" x="9.792510097265627" y="135.1901425108" text-anchor="start" dominant-baseline="alphabetic">Interface</text></g><g><path fill="white" stroke="black" paint-order="fill stroke markers" d=" M 145.63661584662498 70.99279354180001 A 9.311065881 9.311065881 0 1 1 145.63661119109244 70.98348247747084 M 136.325549965625 80.30385942280002 L 136.325549965625 100.23280744880002 M 124.56420358962498 87.49134887480001 L 148.086896341625 87.49134887480001 M 136.325549965625 100.23280744880002 L 124.56420358962498 118.85493921080001 M 136.325549965625 100.23280744880002 L 148.086896341625 118.85493921080001" stroke-miterlimit="10" stroke-width="2.7769845610000004" stroke-dasharray=""/></g><g><text fill="black" stroke="none" font-family="sans-serif" font-size="11pt" font-style="normal" font-weight="normal" text-decoration="normal" x="107.39928806376952" y="135.1901425108" text-anchor="start" dominant-baseline="alphabetic">Operator</text></g><g><path fill="white" stroke="black" paint-order="fill stroke markers" d=" M 353.90098695873434 70.99279354180001 A 9.311065881 9.311065881 0 1 1 353.9009823032018 70.98348247747084 M 344.58992107773435 80.30385942280002 L 344.58992107773435 100.23280744880002 M 332.82857470173434 87.49134887480001 L 356.35126745373435 87.49134887480001 M 344.58992107773435 100.23280744880002 L 332.82857470173434 118.85493921080001 M 344.58992107773435 100.23280744880002 L 356.35126745373435 118.85493921080001" stroke-miterlimit="10" stroke-width="2.7769845610000004" stroke-dasharray=""/></g><g><text fill="black" stroke="none" font-family="sans-serif" font-size="11pt" font-style="normal" font-weight="normal" text-decoration="normal" x="278.58064373398435" y="135.1901425108" text-anchor="start" dominant-baseline="alphabetic">Production Manager</text></g><path fill="none" stroke="none"/><g><path fill="white" stroke="black" paint-order="fill stroke markers" d=" M 524.4569629959973 96.14900662380002 L 634.864955963638 96.14900662380002 L 634.864955963638 140.0907035008 L 524.4569629959973 140.0907035008 L 524.4569629959973 96.14900662380002 Z" stroke-miterlimit="10" stroke-width="2.613632528" stroke-dasharray=""/></g><g><text fill="black" stroke="none" font-family="sans-serif" font-size="11pt" font-style="normal" font-weight="normal" text-decoration="normal" x="542.1806585764973" y="123.75550020080003" text-anchor="start" dominant-baseline="alphabetic">Middleware</text></g></g><g><path fill="white" stroke="black" paint-order="fill stroke markers" d=" M 571.4933578298176 148.2583051508 L 587.8285611298177 148.2583051508 L 587.8285611298177 1394.6343169407994 L 571.4933578298176 1394.6343169407994 L 571.4933578298176 148.2583051508" stroke-miterlimit="10" stroke-width="1.3612669416666667" stroke-dasharray=""/><path fill="white" stroke="black" paint-order="fill stroke markers" d=" M 128.157948315625 514.1668590708 L 144.49315161562498 514.1668590708 L 144.49315161562498 621.9792008507999 L 128.157948315625 621.9792008507999 L 128.157948315625 514.1668590708" stroke-miterlimit="10" stroke-width="1.3612669416666667" stroke-dasharray=""/><path fill="white" stroke="black" paint-order="fill stroke markers" d=" M 336.42231942773435 1002.5894377407998 L 352.75752272773434 1002.5894377407998 L 352.75752272773434 1094.0665762207998 L 336.42231942773435 1094.0665762207998 L 336.42231942773435 1002.5894377407998" stroke-miterlimit="10" stroke-width="1.3612669416666667" stroke-dasharray=""/><path fill="white" stroke="black" paint-order="fill stroke markers" d=" M 128.157948315625 1048.3280069807997 L 144.49315161562498 1048.3280069807997 L 144.49315161562498 1139.8051454607998 L 128.157948315625 1139.8051454607998 L 128.157948315625 1048.3280069807997" stroke-miterlimit="10" stroke-width="1.3612669416666667" stroke-dasharray=""/><path fill="white" stroke="black" paint-order="fill stroke markers" d=" M 579.6609594798176 1201.8789180007998 L 595.9961627798177 1201.8789180007998 L 595.9961627798177 1242.7169262507998 L 579.6609594798176 1242.7169262507998 L 579.6609594798176 1201.8789180007998" stroke-miterlimit="10" stroke-width="1.3612669416666667" stroke-dasharray=""/><g><g><rect fill="white" stroke="none" x="239.28966122000642" y="172.7611101008" width="131.2283655554297" height="21.23576429"/></g><text fill="black" stroke="none" font-family="sans-serif" font-size="11pt" font-style="normal" font-weight="normal" text-decoration="normal" x="241.7399417150064" y="187.4627930708" text-anchor="start" dominant-baseline="alphabetic">Send machine data</text></g><g><path fill="none" stroke="black" paint-order="fill stroke markers" d=" M 38.314330165625 193.9968743908 L 568.7708239464843 193.9968743908" stroke-miterlimit="10" stroke-width="1.3612669416666667" stroke-dasharray=""/><g transform="translate(571.4933578298176,193.9968743908) translate(-571.4933578298176,-193.9968743908)"><path fill="black" stroke="none" paint-order="stroke fill markers" d=" M 557.8806884131509 187.19053968246666 L 571.4933578298176 193.9968743908 L 557.8806884131509 200.80320909913334 Z"/></g></g><g><g><rect fill="white" stroke="none" x="607.1585517014844" y="218.49967934080001" width="145.08661140503906" height="21.23576429"/></g><g><rect fill="white" stroke="none" x="607.1585517014844" y="234.8348826408" width="96.99072517457031" height="21.23576429"/></g><text fill="black" stroke="none" font-family="sans-serif" font-size="11pt" font-style="normal" font-weight="normal" text-decoration="normal" x="609.6088321964844" y="233.2013623108" text-anchor="start" dominant-baseline="alphabetic">Analyse and evaluate</text><text fill="black" stroke="none" font-family="sans-serif" font-size="11pt" font-style="normal" font-weight="normal" text-decoration="normal" x="609.6088321964844" y="249.53656561079998" text-anchor="start" dominant-baseline="alphabetic">machine data </text></g><g><path fill="none" stroke="black" paint-order="fill stroke markers" d=" M 587.8285611298177 256.0706469308 L 653.1693743298176 256.0706469308 L 653.1693743298176 272.4058502308 L 590.551095013151 272.4058502308" stroke-miterlimit="10" stroke-width="1.3612669416666667" stroke-dasharray=""/><g transform="translate(587.8285611298177,272.4058502308) translate(-587.8285611298177,-272.4058502308)"><path fill="black" stroke="none" paint-order="stroke fill markers" d=" M 601.4412305464843 265.5995155224667 L 587.8285611298177 272.4058502308 L 601.4412305464843 279.21218493913335 Z"/></g></g><g><g><rect fill="white" stroke="none" x="607.1585517014844" y="296.9086551808" width="118.16464485230469" height="21.23576429"/></g><text fill="black" stroke="none" font-family="sans-serif" font-size="11pt" font-style="normal" font-weight="normal" text-decoration="normal" x="609.6088321964844" y="311.6103381508" text-anchor="start" dominant-baseline="alphabetic">Check thresholds</text></g><g><path fill="none" stroke="black" paint-order="fill stroke markers" d=" M 587.8285611298177 318.1444194708 L 653.1693743298176 318.1444194708 L 653.1693743298176 334.4796227708 L 590.551095013151 334.4796227708" stroke-miterlimit="10" stroke-width="1.3612669416666667" stroke-dasharray=""/><g transform="translate(587.8285611298177,334.4796227708) translate(-587.8285611298177,-334.4796227708)"><path fill="black" stroke="none" paint-order="stroke fill markers" d=" M 601.4412305464843 327.67328806246667 L 587.8285611298177 334.4796227708 L 601.4412305464843 341.28595747913334 Z"/></g></g><g><g><rect fill="white" stroke="none" x="243.90016003602207" y="403.0874766308" width="220.01858772339844" height="21.23576429"/></g><text fill="black" stroke="none" font-family="sans-serif" font-size="11pt" font-style="normal" font-weight="normal" text-decoration="normal" x="246.35044053102206" y="417.78915960079996" text-anchor="start" dominant-baseline="alphabetic">Notification: Machine malfunction</text></g><g><path fill="none" stroke="black" paint-order="fill stroke markers" d=" M 571.4933578298176 424.3232409208 L 139.04808384895833 424.3232409208" stroke-miterlimit="10" stroke-width="1.3612669416666667" stroke-dasharray=""/><g transform="translate(136.325549965625,424.3232409208) translate(-136.325549965625,-424.3232409208)"><path fill="black" stroke="none" paint-order="stroke fill markers" d=" M 149.93821938229166 417.51690621246667 L 136.325549965625 424.3232409208 L 149.93821938229166 431.12957562913334 Z"/></g></g><g><g><rect fill="white" stroke="none" x="333.13425230389316" y="492.9310947808" width="49.71800483765625" height="21.23576429"/></g><text fill="black" stroke="none" font-family="sans-serif" font-size="11pt" font-style="normal" font-weight="normal" text-decoration="normal" x="335.5845327988932" y="507.63277775079996" text-anchor="start" dominant-baseline="alphabetic">Accept</text></g><g><path fill="none" stroke="black" paint-order="fill stroke markers" d=" M 144.49315161562498 514.1668590708 L 568.7708239464843 514.1668590708" stroke-miterlimit="10" stroke-width="1.3612669416666667" stroke-dasharray="6.53408132"/><g transform="translate(571.4933578298176,514.1668590708) translate(-571.4933578298176,-514.1668590708)"><path fill="black" stroke="none" paint-order="stroke fill markers" d=" M 557.8806884131509 507.36052436246666 L 571.4933578298176 514.1668590708 L 557.8806884131509 520.9731937791333 Z"/></g></g><g><g><rect fill="white" stroke="none" x="163.82314218729167" y="538.6696640207999" width="103.4832025915625" height="21.23576429"/></g><text fill="black" stroke="none" font-family="sans-serif" font-size="11pt" font-style="normal" font-weight="normal" text-decoration="normal" x="166.27342268229165" y="553.3713469907999" text-anchor="start" dominant-baseline="alphabetic">Fix malfunction</text></g><g><path fill="none" stroke="black" paint-order="fill stroke markers" d=" M 144.49315161562498 559.9054283108 L 209.833964815625 559.9054283108 L 209.833964815625 576.2406316107999 L 147.21568549895832 576.2406316107999" stroke-miterlimit="10" stroke-width="1.3612669416666667" stroke-dasharray=""/><g transform="translate(144.49315161562498,576.2406316107999) translate(-144.49315161562498,-576.2406316107999)"><path fill="black" stroke="none" paint-order="stroke fill markers" d=" M 158.10582103229166 569.4342969024666 L 144.49315161562498 576.2406316107999 L 158.10582103229166 583.0469663191333 Z"/></g></g><g><g><rect fill="white" stroke="none" x="310.7362649381705" y="600.7434365607999" width="94.51397956910156" height="21.23576429"/></g><text fill="black" stroke="none" font-family="sans-serif" font-size="11pt" font-style="normal" font-weight="normal" text-decoration="normal" x="313.1865454331705" y="615.4451195307998" text-anchor="start" dominant-baseline="alphabetic">Confirm fixing</text></g><g><path fill="none" stroke="black" paint-order="fill stroke markers" d=" M 144.49315161562498 621.9792008507999 L 568.7708239464843 621.9792008507999" stroke-miterlimit="10" stroke-width="1.3612669416666667" stroke-dasharray=""/><g transform="translate(571.4933578298176,621.9792008507999) translate(-571.4933578298176,-621.9792008507999)"><path fill="black" stroke="none" paint-order="stroke fill markers" d=" M 557.8806884131509 615.1728661424665 L 571.4933578298176 621.9792008507999 L 557.8806884131509 628.7855355591332 Z"/></g></g><g><g><rect fill="white" stroke="none" x="327.0139448260611" y="690.5870547107997" width="53.791018143320315" height="21.23576429"/></g><text fill="black" stroke="none" font-family="sans-serif" font-size="11pt" font-style="normal" font-weight="normal" text-decoration="normal" x="329.4642253210611" y="705.2887376807997" text-anchor="start" dominant-baseline="alphabetic">Decline</text></g><g><path fill="none" stroke="black" paint-order="fill stroke markers" d=" M 136.325549965625 711.8228190007998 L 568.7708239464843 711.8228190007998" stroke-miterlimit="10" stroke-width="1.3612669416666667" stroke-dasharray="6.53408132"/><g transform="translate(571.4933578298176,711.8228190007998) translate(-571.4933578298176,-711.8228190007998)"><path fill="black" stroke="none" paint-order="stroke fill markers" d=" M 557.8806884131509 705.0164842924664 L 571.4933578298176 711.8228190007998 L 557.8806884131509 718.6291537091331 Z"/></g></g><path fill="none" stroke="none"/><g><g/><path fill="white" stroke="black" paint-order="fill stroke markers" d=" M 454.10739446430983 736.3256239507998 L 705.2145244953255 736.3256239507998 L 705.2145244953255 809.8340388007998 L 454.10739446430983 809.8340388007998 L 454.10739446430983 736.3256239507998 Z" stroke-miterlimit="10" stroke-width="2.3336004714285714" stroke-dasharray=""/><path fill="white" stroke="black" paint-order="fill stroke markers" d=" M 454.10739446430983 736.3256239507998 L 454.10739446430983 755.9278679107998 L 501.772475746927 755.9278679107998 L 511.573597726927 746.1267459307998 L 511.573597726927 736.3256239507998 L 454.10739446430983 736.3256239507998" stroke-miterlimit="10" stroke-width="2.3336004714285714" stroke-dasharray=""/><text fill="black" stroke="none" font-family="sans-serif" font-size="8.8pt" font-style="normal" font-weight="bold" text-decoration="normal" x="470.4425977643098" y="749.3937865907998" text-anchor="start" dominant-baseline="alphabetic">ref</text></g><g><text fill="black" stroke="none" font-family="sans-serif" font-size="11pt" font-style="normal" font-weight="normal" text-decoration="normal" x="476.9766790843098" y="777.6303522950855" text-anchor="start" dominant-baseline="alphabetic">escalation = TRUE</text><text fill="black" stroke="none" font-family="sans-serif" font-size="11pt" font-style="normal" font-weight="normal" text-decoration="normal" x="476.9766790843098" y="793.9655555950854" text-anchor="start" dominant-baseline="alphabetic">continue with escalation pattern</text></g><path fill="white" stroke="black" paint-order="fill stroke markers" d=" M 121.62386699562498 834.3368437507999 L 579.6609594798176 834.3368437507999 L 594.3626424498176 849.0385267207998 L 594.3626424498176 888.2430146407999 L 121.62386699562498 888.2430146407999 L 121.62386699562498 834.3368437507999 M 579.6609594798176 834.3368437507999 L 579.6609594798176 849.0385267207998 L 594.3626424498176 849.0385267207998" stroke-miterlimit="10" stroke-width="1.3612669416666667" stroke-dasharray=""/><g><text fill="black" stroke="none" font-family="sans-serif" font-size="11pt" font-style="normal" font-weight="normal" text-decoration="normal" x="174.23168856061193" y="857.2061283707999" text-anchor="start" dominant-baseline="alphabetic">Repeat notifing the Operator after timeout.</text><text fill="black" stroke="none" font-family="sans-serif" font-size="11pt" font-style="normal" font-weight="normal" text-decoration="normal" x="174.23168856061193" y="873.5413316707999" text-anchor="start" dominant-baseline="alphabetic">If the Operator declines, continue with escalation Pattern</text></g><g><g><rect fill="white" stroke="none" x="372.08751329940094" y="981.3536734507998" width="180.07585395875" height="21.23576429"/></g><text fill="black" stroke="none" font-family="sans-serif" font-size="11pt" font-style="normal" font-weight="normal" text-decoration="normal" x="374.53779379440095" y="996.0553564207997" text-anchor="start" dominant-baseline="alphabetic">Error: Machine malfunction</text></g><g><path fill="none" stroke="black" paint-order="fill stroke markers" d=" M 571.4933578298176 1002.5894377407998 L 355.48005661106765 1002.5894377407998" stroke-miterlimit="10" stroke-width="1.3612669416666667" stroke-dasharray=""/><g transform="translate(352.75752272773434,1002.5894377407998) translate(-352.75752272773434,-1002.5894377407998)"><path fill="black" stroke="none" paint-order="stroke fill markers" d=" M 366.370192144401 995.7831030324664 L 352.75752272773434 1002.5894377407998 L 366.370192144401 1009.3957724491331 Z"/></g></g><g><g><rect fill="white" stroke="none" x="267.9553277433463" y="1027.0922426907998" width="180.07585395875" height="21.23576429"/></g><text fill="black" stroke="none" font-family="sans-serif" font-size="11pt" font-style="normal" font-weight="normal" text-decoration="normal" x="270.4056082383463" y="1041.7939256608" text-anchor="start" dominant-baseline="alphabetic">Error: Machine malfunction</text></g><g><path fill="none" stroke="black" paint-order="fill stroke markers" d=" M 571.4933578298176 1048.3280069807997 L 147.21568549895832 1048.3280069807997" stroke-miterlimit="10" stroke-width="1.3612669416666667" stroke-dasharray=""/><g transform="translate(144.49315161562498,1048.3280069807997) translate(-144.49315161562498,-1048.3280069807997)"><path fill="black" stroke="none" paint-order="stroke fill markers" d=" M 158.10582103229166 1041.5216722724665 L 144.49315161562498 1048.3280069807997 L 158.10582103229166 1055.134341689133 Z"/></g></g><g><g><rect fill="white" stroke="none" x="409.5713847593619" y="1072.8308119307999" width="105.10811103882813" height="21.23576429"/></g><text fill="black" stroke="none" font-family="sans-serif" font-size="11pt" font-style="normal" font-weight="normal" text-decoration="normal" x="412.0216652543619" y="1087.5324949008" text-anchor="start" dominant-baseline="alphabetic">Confirm/Accept</text></g><g><path fill="none" stroke="black" paint-order="fill stroke markers" d=" M 352.75752272773434 1094.0665762207998 L 568.7708239464843 1094.0665762207998" stroke-miterlimit="10" stroke-width="1.3612669416666667" stroke-dasharray="6.53408132"/><g transform="translate(571.4933578298176,1094.0665762207998) translate(-571.4933578298176,-1094.0665762207998)"><path fill="black" stroke="none" paint-order="stroke fill markers" d=" M 557.8806884131509 1087.2602415124666 L 571.4933578298176 1094.0665762207998 L 557.8806884131509 1100.872910929133 Z"/></g></g><g><g><rect fill="white" stroke="none" x="305.4391992033072" y="1118.5693811708" width="105.10811103882813" height="21.23576429"/></g><text fill="black" stroke="none" font-family="sans-serif" font-size="11pt" font-style="normal" font-weight="normal" text-decoration="normal" x="307.88947969830724" y="1133.2710641408" text-anchor="start" dominant-baseline="alphabetic">Confirm/Accept</text></g><g><path fill="none" stroke="black" paint-order="fill stroke markers" d=" M 144.49315161562498 1139.8051454607998 L 568.7708239464843 1139.8051454607998" stroke-miterlimit="10" stroke-width="1.3612669416666667" stroke-dasharray="6.53408132"/><g transform="translate(571.4933578298176,1139.8051454607998) translate(-571.4933578298176,-1139.8051454607998)"><path fill="black" stroke="none" paint-order="stroke fill markers" d=" M 557.8806884131509 1132.9988107524666 L 571.4933578298176 1139.8051454607998 L 557.8806884131509 1146.611480169133 Z"/></g></g><g><g><rect fill="white" stroke="none" x="615.3261533514843" y="1164.3079504107998" width="92.89621223511719" height="21.23576429"/></g><text fill="black" stroke="none" font-family="sans-serif" font-size="11pt" font-style="normal" font-weight="normal" text-decoration="normal" x="617.7764338464843" y="1179.0096333807999" text-anchor="start" dominant-baseline="alphabetic">Verfiy answer</text></g><g><path fill="none" stroke="black" paint-order="fill stroke markers" d=" M 587.8285611298177 1185.5437147007997 L 661.3369759798176 1185.5437147007997 L 661.3369759798176 1201.8789180007998 L 598.7186966631509 1201.8789180007998" stroke-miterlimit="10" stroke-width="1.3612669416666667" stroke-dasharray=""/><g transform="translate(595.9961627798176,1201.8789180007998) translate(-595.9961627798176,-1201.8789180007998)"><path fill="black" stroke="none" paint-order="stroke fill markers" d=" M 609.6088321964843 1195.0725832924666 L 595.9961627798176 1201.8789180007998 L 609.6088321964843 1208.685252709133 Z"/></g></g><path fill="white" stroke="black" paint-order="fill stroke markers" d=" M 121.62386699562498 1267.2197312007997 L 579.6609594798176 1267.2197312007997 L 594.3626424498176 1281.9214141707998 L 594.3626424498176 1304.7906987907998 L 121.62386699562498 1304.7906987907998 L 121.62386699562498 1267.2197312007997 M 579.6609594798176 1267.2197312007997 L 579.6609594798176 1281.9214141707998 L 594.3626424498176 1281.9214141707998" stroke-miterlimit="10" stroke-width="1.3612669416666667" stroke-dasharray=""/><g><text fill="black" stroke="none" font-family="sans-serif" font-size="11pt" font-style="normal" font-weight="normal" text-decoration="normal" x="184.0169363633463" y="1290.0890158208" text-anchor="start" dominant-baseline="alphabetic">Repeat notifing after timeout until malfunction is fixed.</text></g><g><g/><path fill="none" stroke="black" paint-order="fill stroke markers" d=" M 54.64953346562499 358.9824277208 L 746.0525327453254 358.9824277208 L 746.0525327453254 1353.7963086907996 L 54.64953346562499 1353.7963086907996 L 54.64953346562499 358.9824277208 Z" stroke-miterlimit="10" stroke-width="2.3336004714285714" stroke-dasharray=""/><path fill="white" stroke="black" paint-order="fill stroke markers" d=" M 54.64953346562499 358.9824277208 L 54.64953346562499 378.5846716808 L 105.55640551972655 378.5846716808 L 115.35752749972656 368.7835497008 L 115.35752749972656 358.9824277208 L 54.64953346562499 358.9824277208" stroke-miterlimit="10" stroke-width="2.3336004714285714" stroke-dasharray=""/><text fill="black" stroke="none" font-family="sans-serif" font-size="8.8pt" font-style="normal" font-weight="bold" text-decoration="normal" x="70.98473676562499" y="372.0505903608" text-anchor="start" dominant-baseline="alphabetic">opt</text><text fill="black" stroke="none" font-family="sans-serif" font-size="8.8pt" font-style="normal" font-weight="bold" text-decoration="normal" x="131.69273079972655" y="372.0505903608" text-anchor="start" dominant-baseline="alphabetic">[Event: Machine malfunction]</text></g><g><g/><path fill="none" stroke="black" paint-order="fill stroke markers" d=" M 79.152338415625 448.8260458708 L 713.3821261453254 448.8260458708 L 713.3821261453254 912.7458195907999 L 79.152338415625 912.7458195907999 L 79.152338415625 448.8260458708 Z" stroke-miterlimit="10" stroke-width="2.3336004714285714" stroke-dasharray=""/><path fill="white" stroke="black" paint-order="fill stroke markers" d=" M 79.152338415625 448.8260458708 L 79.152338415625 468.4282898308 L 125.51154201269532 468.4282898308 L 135.31266399269532 458.6271678508 L 135.31266399269532 448.8260458708 L 79.152338415625 448.8260458708" stroke-miterlimit="10" stroke-width="2.3336004714285714" stroke-dasharray=""/><text fill="black" stroke="none" font-family="sans-serif" font-size="8.8pt" font-style="normal" font-weight="bold" text-decoration="normal" x="95.487541715625" y="461.8942085108" text-anchor="start" dominant-baseline="alphabetic">alt</text><text fill="black" stroke="none" font-family="sans-serif" font-size="8.8pt" font-style="normal" font-weight="bold" text-decoration="normal" x="151.6478672926953" y="461.8942085108" text-anchor="start" dominant-baseline="alphabetic">[Accept]</text><g><path fill="none" stroke="black" paint-order="fill stroke markers" d=" M 79.152338415625 646.4820058007998 L 713.3821261453254 646.4820058007998" stroke-miterlimit="10" stroke-width="2.3336004714285714" stroke-dasharray="4.083800825"/></g><g/><text fill="black" stroke="none" font-family="sans-serif" font-size="8.8pt" font-style="normal" font-weight="bold" text-decoration="normal" x="151.6478672926953" y="659.5501684407998" text-anchor="start" dominant-baseline="alphabetic">[Decline or Timeout / no user interaction]</text></g><g/><g><g/><path fill="none" stroke="black" paint-order="fill stroke markers" d=" M 70.984736765625 937.2486245407998 L 713.9396867416015 937.2486245407998 L 713.9396867416015 1329.2935037407997 L 70.984736765625 1329.2935037407997 L 70.984736765625 937.2486245407998 Z" stroke-miterlimit="10" stroke-width="2.3336004714285714" stroke-dasharray=""/><path fill="white" stroke="black" paint-order="fill stroke markers" d=" M 70.984736765625 937.2486245407998 L 70.984736765625 956.8508685007998 L 121.89160881972657 956.8508685007998 L 131.69273079972658 947.0497465207998 L 131.69273079972658 937.2486245407998 L 70.984736765625 937.2486245407998" stroke-miterlimit="10" stroke-width="2.3336004714285714" stroke-dasharray=""/><text fill="black" stroke="none" font-family="sans-serif" font-size="8.8pt" font-style="normal" font-weight="bold" text-decoration="normal" x="87.319940065625" y="950.3167871807998" text-anchor="start" dominant-baseline="alphabetic">opt</text><text fill="black" stroke="none" font-family="sans-serif" font-size="8.8pt" font-style="normal" font-weight="bold" text-decoration="normal" x="148.02793409972656" y="950.3167871807998" text-anchor="start" dominant-baseline="alphabetic">[escalation &amp;&amp; malfunction not fixed]</text></g></g></g></svg>