<svg version="1.1" xmlns="http://www.w3.org/2000/svg" xmlns:xlink="http://www.w3.org/1999/xlink" width="495" height="501"><defs/><g><g/><g/><g/><g/><g/><g/><g/><g/><g/><g/><g><rect fill="white" stroke="none" x="0" y="0" width="495" height="501"/></g><g><text fill="black" stroke="none" font-family="sans-serif" font-size="16.5pt" font-style="normal" font-weight="normal" text-decoration="normal" x="61.792157306444636" y="24.50280495" text-anchor="start" dominant-baseline="alphabetic">Sample Use-Case 4 - Error Recording</text></g><g/><g><path fill="none" stroke="black" paint-order="fill stroke markers" d=" M 37.09386355185547 128.80307802049998 L 37.09386355185547 501.2457132605" stroke-miterlimit="10" stroke-width="1.3612669416666667" stroke-dasharray="12.565541,5.445067766666667"/><path fill="none" stroke="black" paint-order="fill stroke markers" d=" M 258.3424684822591 128.80307802049998 L 258.3424684822591 501.2457132605" stroke-miterlimit="10" stroke-width="1.3612669416666667" stroke-dasharray="12.565541,5.445067766666667"/><path fill="none" stroke="black" paint-order="fill stroke markers" d=" M 453.49941386676426 128.80307802049998 L 453.49941386676426 501.2457132605" stroke-miterlimit="10" stroke-width="1.3612669416666667" stroke-dasharray="12.565541,5.445067766666667"/></g><g><g><path fill="white" stroke="black" paint-order="fill stroke markers" d=" M 46.40492943285547 59.70516806150002 A 9.311065881 9.311065881 0 1 1 46.40492477732292 59.69585699717086 M 37.09386355185547 69.01623394250002 L 37.09386355185547 88.94518196850002 M 25.33251717585547 76.20372339450002 L 48.85520992785547 76.20372339450002 M 37.09386355185547 88.94518196850002 L 25.33251717585547 107.56731373050002 M 37.09386355185547 88.94518196850002 L 48.85520992785547 107.56731373050002" stroke-miterlimit="10" stroke-width="2.7769845610000004" stroke-dasharray=""/></g><g><text fill="black" stroke="none" font-family="sans-serif" font-size="11pt" font-style="normal" font-weight="normal" text-decoration="normal" x="8.167601650000002" y="123.90251703050002" text-anchor="start" dominant-baseline="alphabetic">Operator</text></g><path fill="none" stroke="none"/><g><path fill="white" stroke="black" paint-order="fill stroke markers" d=" M 203.13847199843877 84.86138114350003 L 313.5464649660794 84.86138114350003 L 313.5464649660794 128.8030780205 L 203.13847199843877 128.8030780205 L 203.13847199843877 84.86138114350003 Z" stroke-miterlimit="10" stroke-width="2.613632528" stroke-dasharray=""/></g><g><text fill="black" stroke="none" font-family="sans-serif" font-size="11pt" font-style="normal" font-weight="normal" text-decoration="normal" x="220.8621675789388" y="112.4678747205" text-anchor="start" dominant-baseline="alphabetic">Middleware</text></g><path fill="none" stroke="none"/><g><path fill="white" stroke="black" paint-order="fill stroke markers" d=" M 419.89168508313924 84.86138114350003 L 487.1071426503893 84.86138114350003 L 487.1071426503893 128.8030780205 L 419.89168508313924 128.8030780205 L 419.89168508313924 84.86138114350003 Z" stroke-miterlimit="10" stroke-width="2.613632528" stroke-dasharray=""/></g><g><text fill="black" stroke="none" font-family="sans-serif" font-size="11pt" font-style="normal" font-weight="normal" text-decoration="normal" x="437.61538066363926" y="112.4678747205" text-anchor="start" dominant-baseline="alphabetic">MES</text></g></g><g><path fill="white" stroke="black" paint-order="fill stroke markers" d=" M 445.33181221676426 136.97067967049998 L 461.66701551676425 136.97067967049998 L 461.66701551676425 484.9105099605 L 445.33181221676426 484.9105099605 L 445.33181221676426 136.97067967049998" stroke-miterlimit="10" stroke-width="1.3612669416666667" stroke-dasharray=""/><path fill="white" stroke="black" paint-order="fill stroke markers" d=" M 250.1748668322591 136.97067967049998 L 266.5100701322591 136.97067967049998 L 266.5100701322591 484.9105099605 L 250.1748668322591 484.9105099605 L 250.1748668322591 136.97067967049998" stroke-miterlimit="10" stroke-width="1.3612669416666667" stroke-dasharray=""/><path fill="white" stroke="black" paint-order="fill stroke markers" d=" M 28.92626190185547 228.44781815049998 L 45.26146520185547 228.44781815049998 L 45.26146520185547 398.3339324705 L 28.92626190185547 398.3339324705 L 28.92626190185547 228.44781815049998" stroke-miterlimit="10" stroke-width="1.3612669416666667" stroke-dasharray=""/><g><g><rect fill="white" stroke="none" x="285.8400607039257" y="161.4734846205" width="140.16176094117188" height="21.23576429"/></g><text fill="black" stroke="none" font-family="sans-serif" font-size="11pt" font-style="normal" font-weight="normal" text-decoration="normal" x="288.2903411989257" y="176.17516759049997" text-anchor="start" dominant-baseline="alphabetic">Signal machine error</text></g><g><path fill="none" stroke="black" paint-order="fill stroke markers" d=" M 445.33181221676426 182.70924891049998 L 269.2326040155924 182.70924891049998" stroke-miterlimit="10" stroke-width="1.3612669416666667" stroke-dasharray=""/><g transform="translate(266.5100701322591,182.70924891049998) translate(-266.5100701322591,-182.70924891049998)"><path fill="black" stroke="none" paint-order="stroke fill markers" d=" M 280.1227395489258 175.90291420216664 L 266.5100701322591 182.70924891049998 L 280.1227395489258 189.51558361883332 Z"/></g></g><g><g><rect fill="white" stroke="none" x="93.94722206990885" y="207.2120538605" width="107.54188789429688" height="21.23576429"/></g><text fill="black" stroke="none" font-family="sans-serif" font-size="11pt" font-style="normal" font-weight="normal" text-decoration="normal" x="96.39750256490885" y="221.91373683049997" text-anchor="start" dominant-baseline="alphabetic">Notify with error</text></g><g><path fill="none" stroke="black" paint-order="fill stroke markers" d=" M 250.1748668322591 228.44781815049998 L 47.983999085188806 228.44781815049998" stroke-miterlimit="10" stroke-width="1.3612669416666667" stroke-dasharray=""/><g transform="translate(45.26146520185547,228.44781815049998) translate(-45.26146520185547,-228.44781815049998)"><path fill="black" stroke="none" paint-order="stroke fill markers" d=" M 58.87413461852214 221.64148344216665 L 45.26146520185547 228.44781815049998 L 58.87413461852214 235.25415285883332 Z"/></g></g><g><g><rect fill="white" stroke="none" x="122.85916359822916" y="252.9506231005" width="49.71800483765625" height="21.23576429"/></g><text fill="black" stroke="none" font-family="sans-serif" font-size="11pt" font-style="normal" font-weight="normal" text-decoration="normal" x="125.30944409322916" y="267.6523060705" text-anchor="start" dominant-baseline="alphabetic">Accept</text></g><g><path fill="none" stroke="black" paint-order="fill stroke markers" d=" M 45.26146520185547 274.1863873905 L 247.45233294892577 274.1863873905" stroke-miterlimit="10" stroke-width="1.3612669416666667" stroke-dasharray="6.53408132"/><g transform="translate(250.1748668322591,274.1863873905) translate(-250.1748668322591,-274.1863873905)"><path fill="black" stroke="none" paint-order="stroke fill markers" d=" M 236.56219741559244 267.38005268216665 L 250.1748668322591 274.1863873905 L 236.56219741559244 280.9927220988333 Z"/></g></g><g><g><rect fill="white" stroke="none" x="64.59145577352214" y="298.6891923405" width="103.48318733277344" height="21.23576429"/></g><text fill="black" stroke="none" font-family="sans-serif" font-size="11pt" font-style="normal" font-weight="normal" text-decoration="normal" x="67.04173626852214" y="313.39087531049995" text-anchor="start" dominant-baseline="alphabetic">Fixing the error</text></g><g><path fill="none" stroke="black" paint-order="fill stroke markers" d=" M 45.26146520185547 319.9249566305 L 110.60227840185547 319.9249566305 L 110.60227840185547 336.2601599305 L 47.983999085188806 336.2601599305" stroke-miterlimit="10" stroke-width="1.3612669416666667" stroke-dasharray=""/><g transform="translate(45.26146520185547,336.2601599305) translate(-45.26146520185547,-336.2601599305)"><path fill="black" stroke="none" paint-order="stroke fill markers" d=" M 58.87413461852214 329.45382522216664 L 45.26146520185547 336.2601599305 L 58.87413461852214 343.0664946388333 Z"/></g></g><g><g><rect fill="white" stroke="none" x="64.59145577352213" y="360.76296488049996" width="166.25342048707031" height="21.23576429"/></g><g><rect fill="white" stroke="none" x="64.59145577352213" y="377.09816818049995" width="152.40228523316406" height="21.23576429"/></g><text fill="black" stroke="none" font-family="sans-serif" font-size="11pt" font-style="normal" font-weight="normal" text-decoration="normal" x="67.04173626852213" y="375.46464785049994" text-anchor="start" dominant-baseline="alphabetic">Report with Reason and </text><text fill="black" stroke="none" font-family="sans-serif" font-size="11pt" font-style="normal" font-weight="normal" text-decoration="normal" x="67.04173626852213" y="391.79985115049993" text-anchor="start" dominant-baseline="alphabetic">additional Informations</text></g><g><path fill="none" stroke="black" paint-order="fill stroke markers" d=" M 45.26146520185547 398.3339324705 L 247.45233294892577 398.3339324705" stroke-miterlimit="10" stroke-width="1.3612669416666667" stroke-dasharray=""/><g transform="translate(250.1748668322591,398.3339324705) translate(-250.1748668322591,-398.3339324705)"><path fill="black" stroke="none" paint-order="stroke fill markers" d=" M 236.56219741559244 391.52759776216664 L 250.1748668322591 398.3339324705 L 236.56219741559244 405.1402671788333 Z"/></g></g><g><g><rect fill="white" stroke="none" x="309.06480740802726" y="422.83673742049996" width="93.71226753296875" height="21.23576429"/></g><text fill="black" stroke="none" font-family="sans-serif" font-size="11pt" font-style="normal" font-weight="normal" text-decoration="normal" x="311.5150879030273" y="437.53842039049994" text-anchor="start" dominant-baseline="alphabetic">Relay answer</text></g><g><path fill="none" stroke="black" paint-order="fill stroke markers" d=" M 266.5100701322591 444.0725017105 L 442.60927833343095 444.0725017105" stroke-miterlimit="10" stroke-width="1.3612669416666667" stroke-dasharray=""/><g transform="translate(445.33181221676426,444.0725017105) translate(-445.33181221676426,-444.0725017105)"><path fill="black" stroke="none" paint-order="stroke fill markers" d=" M 431.7191428000976 437.26616700216664 L 445.33181221676426 444.0725017105 L 431.7191428000976 450.8788364188333 Z"/></g></g></g></g></svg>